<svg xmlns="http://www.w3.org/2000/svg" viewBox="0 0 519.639 474.601">
  <defs>
    <style>
      .cls-1, .cls-29 {
        fill: #fff;
      }

      .cls-2 {
        fill: #d3d3d3;
      }

      .cls-3 {
        fill: #e9e9e9;
      }

      .cls-4 {
        fill: #9eccff;
      }

      .cls-27, .cls-5 {
        fill: #2b90ff;
      }

      .cls-6 {
        fill: #10355d;
      }

      .cls-7 {
        fill: #ffb522;
      }

      .cls-8 {
        fill: #d8d8d8;
      }

      .cls-9 {
        fill: #ffcfae;
      }

      .cls-10 {
        fill: #444549;
      }

      .cls-11 {
        fill: #9b9b9b;
      }

      .cls-12 {
        fill: #424242;
      }

      .cls-13, .cls-20 {
        opacity: 0.08;
      }

      .cls-14 {
        fill: #dbdbdb;
      }

      .cls-15 {
        fill: #ffdfca;
      }

      .cls-16 {
        fill: #081b2f;
      }

      .cls-17 {
        opacity: 0.1;
      }

      .cls-18 {
        fill: #08253f;
      }

      .cls-19 {
        fill: #eab896;
      }

      .cls-20 {
        fill: #3a2416;
      }

      .cls-21 {
        fill: #e2e2e2;
      }

      .cls-22 {
        fill: #288be5;
      }

      .cls-23 {
        fill: #ccc;
      }

      .cls-24 {
        fill: #f9f8f5;
        stroke: #148cff;
        stroke-width: 5px;
      }

      .cls-25 {
        fill: #e8e8e8;
      }

      .cls-26 {
        opacity: 0.2;
      }

      .cls-27 {
        opacity: 0.47;
      }

      .cls-28 {
        opacity: 0.49;
      }

      .cls-29 {
        opacity: 0.75;
      }

      .cls-30 {
        opacity: 0.15;
      }

      .cls-31 {
        fill: #050505;
      }

      .cls-32, .cls-57 {
        fill: #e6e7e8;
      }

      .cls-32 {
        opacity: 0.6;
      }

      .cls-33, .cls-36 {
        fill: #a7792b;
      }

      .cls-34 {
        fill: #be9231;
      }

      .cls-35 {
        fill: #f0a73b;
      }

      .cls-36 {
        opacity: 0.5;
      }

      .cls-37 {
        fill: #00873d;
      }

      .cls-38 {
        fill: #f3f3f3;
      }

      .cls-39 {
        fill: #02aa4e;
      }

      .cls-40 {
        fill: #0f5b3c;
      }

      .cls-40, .cls-43 {
        opacity: 0.3;
      }

      .cls-41 {
        fill: #00a54b;
      }

      .cls-42 {
        fill: #05b354;
      }

      .cls-43 {
        fill: #004b30;
      }

      .cls-44 {
        fill: #0fa84b;
      }

      .cls-45 {
        fill: #05bd59;
      }

      .cls-46 {
        fill: #efefef;
      }

      .cls-47 {
        fill: #e9ca1c;
      }

      .cls-48 {
        fill: #edda30;
      }

      .cls-49 {
        fill: #f9ed32;
      }

      .cls-50 {
        fill: #f9d919;
      }

      .cls-51 {
        fill: #c3c4c6;
      }

      .cls-52 {
        fill: #eeeeef;
      }

      .cls-53 {
        fill: #d2d3d4;
      }

      .cls-54 {
        fill: #98999c;
      }

      .cls-55 {
        fill: #cecfd1;
      }

      .cls-56 {
        fill: #b1b2b4;
      }

      .cls-58 {
        fill: #e0a834;
      }

      .cls-59 {
        fill: #eeb83b;
      }

      .cls-60 {
        fill: #f8c440;
      }

      .cls-61 {
        fill: #b7b7b7;
      }

      .cls-62 {
        fill: #cacaca;
      }

      .cls-63 {
        fill: #c1c1c1;
      }

      .cls-64 {
        fill: #afafaf;
      }

      .cls-65 {
        fill: #0e64c2;
      }

      .cls-66 {
        fill: #edebea;
      }
    </style>
  </defs>
  <g id="Location-analuytics-header-Xmas" transform="translate(-720.24 -113)">
    <g id="Homepage-Header-Xmas" transform="translate(720 113)">
      <g id="New_Graph" transform="translate(78.649)">
        <path id="Shape" class="cls-1" d="M438.421,94.627,275.194.387c-1.557-.9-2.824-.178-2.829,1.611l-.594,209.4a6.212,6.212,0,0,0,2.809,4.868l163.23,94.239c1.556.9,2.821.176,2.826-1.613l.594-209.4a6.194,6.194,0,0,0-2.809-4.866"/>
        <path id="Shape-2" data-name="Shape" class="cls-2" d="M263.16,135.392l-14.142-8.163-.01,2.79,14.143,8.166.009-2.793"/>
        <path id="Shape-3" data-name="Shape" class="cls-3" d="M264.6,140.458,247.536,130.6l0,1.734,17.067,9.85.005-1.727"/>
        <path id="Shape-4" data-name="Shape" class="cls-3" d="M264.594,142.995l-17.067-9.856,0,1.727,17.067,9.856.005-1.727"/>
        <path id="Shape-5" data-name="Shape" class="cls-4" d="M256.111,120.894a15.126,15.126,0,0,1-6.884-11.915c.015-4.387,3.11-6.153,6.927-3.947a15.169,15.169,0,0,1,6.879,11.92c-.015,4.373-3.1,6.155-6.922,3.944m.053-20.381v4.517c-3.817-2.206-6.913-.426-6.927,3.947l-3.945-2.28c-.019,6.888,4.811,15.277,10.824,18.734s10.859.68,10.859-6.208-4.825-15.254-10.823-18.715"/>
        <path id="Shape-6" data-name="Shape" class="cls-5" d="M256.166,100.512c-5.989-3.461-10.864-.7-10.883,6.184l3.944,2.28c.015-4.372,3.11-6.152,6.927-3.947v-4.517"/>
        <path id="Shape-7" data-name="Shape" class="cls-2" d="M292.1,152.108l-14.143-8.17-.009,2.795,14.142,8.165.01-2.79"/>
        <path id="Shape-8" data-name="Shape" class="cls-3" d="M293.545,157.169l-17.067-9.852-.005,1.725L293.54,158.9l.005-1.729"/>
        <path id="Shape-9" data-name="Shape" class="cls-3" d="M293.535,159.7l-17.067-9.852,0,1.722,17.068,9.859,0-1.729"/>
        <path id="Shape-10" data-name="Shape" class="cls-4" d="M279.722,131.652v0m-1.563-5.969a13.477,13.477,0,0,0,1.549,5.936,13.6,13.6,0,0,1-1.549-5.936m6.937-8.462v4.517c-3.817-2.205-6.913-.426-6.927,3.945.014-4.371,3.11-6.15,6.927-3.945a15.167,15.167,0,0,1,6.878,11.918c-.014,4.37-3.105,6.155-6.922,3.949a13.984,13.984,0,0,1-4.868-5.128l-2.807,1.581c-.194-.342-.387-.691-.572-1.037a22.685,22.685,0,0,0,8.233,9.12c5.994,3.459,10.867.683,10.888-6.205S291.1,120.682,285.1,117.221"/>
        <path id="Shape-11" data-name="Shape" class="cls-5" d="M285.108,117.221c-5.989-3.461-10.865-.7-10.884,6.184a21.458,21.458,0,0,0,2.581,9.621c.185.346.378.695.572,1.036l2.807-1.58c-.156-.269-.3-.534-.44-.806v-.019c0-.011-.009-.023-.014-.034a13.375,13.375,0,0,1-1.549-5.935c.014-4.371,3.11-6.151,6.927-3.945v-4.517"/>
        <path id="Shape-12" data-name="Shape" class="cls-4" d="M314.049,133.93v4.517c-3.8-2.2-6.912-.426-6.927,3.949.015-4.375,3.127-6.145,6.927-3.949a15.2,15.2,0,0,1,6.879,11.918c0,2.15-.762,3.663-1.96,4.4l2.831,4.783-2.831-4.783,2.831,4.783c-1.985,1.2-4.739,1.068-7.808-.7C308,155.389,303.168,147,303.168,140.111c-.019,6.889,4.811,15.278,10.823,18.739,3.072,1.77,5.823,1.907,7.808.7,1.9-1.156,3.069-3.528,3.078-6.91.02-6.883-4.824-15.253-10.823-18.714"/>
        <path id="Shape-13" data-name="Shape" class="cls-2" d="M321.043,168.817,306.9,160.649l-.01,2.79,14.143,8.171.009-2.793"/>
        <path id="Shape-14" data-name="Shape" class="cls-3" d="M322.5,173.887l-17.082-9.861,0,1.727,17.081,9.868.005-1.734"/>
        <path id="Shape-15" data-name="Shape" class="cls-3" d="M322.5,176.425l-17.086-9.866-.005,1.727,17.086,9.863.005-1.724"/>
        <path id="Shape-16" data-name="Shape" class="cls-5" d="M314.049,133.93c-5.989-3.461-10.864-.7-10.883,6.184s4.81,15.277,10.823,18.739c3.071,1.77,5.823,1.907,7.807.7l-2.831-4.784c-1.25.767-3.016.669-4.961-.455A15.186,15.186,0,0,1,307.12,142.4c.01-4.385,3.127-6.146,6.927-3.95v-4.517"/>
        <path id="Shape-17" data-name="Shape" class="cls-5" d="M318.956,154.773l2.831,4.782-2.831-4.782"/>
        <path id="Shape-18" data-name="Shape" class="cls-1" d="M372.154,343.542l.012-3.329,6.953,4.014v3.322l-6.975-4.01m-19.665-11.36.012-5.31,7,4.053-.012,5.291-7-4.041M273.895,286.8l.026-10.66,7,4.053-.026,10.648-7-4.041m-98.237-56.726.038-13.2,7,4.041-.039,13.214-7-4.053m157.205,90.769.038-14.688,6.975,4.014-.05,14.7-6.954-4.029M254.29,275.473l.039-15.509,6.975,4.014-.051,15.528-6.953-4.033m-58.978-34.031.065-22.128,7,4.033-.065,22.128-7-4.041m39.291,22.681.089-30.889,6.992,4.04-.077,30.89-7-4.041M175.686,216.87l.051-18.52,7,4.053-.051,18.5-7-4.04m19.7,2.453.038-14.693,7,4.04-.038,14.689-7-4.036m98.184,78.847.1-38.644,6.975,4.009-.116,38.651-6.953-4.014m-19.641-22.012.089-31.989,7,4.041-.089,32.005-7-4.052M234.7,233.23l.027-12.865,7,4.041-.039,12.865L234.7,233.23m98.2,72.928.089-31.66,6.975,4.017-.089,31.659L332.9,306.16M214.985,252.8l.142-50.888,6.975,4.014-.154,50.889-6.954-4.015m78.686,6.735.038-13.392,6.975,4.009-.038,13.392-6.975-4.009M313.2,309.5l.18-66.013,7,4.041-.18,66.013-7-4.041m39.3,17.382.2-74.3,7,4.041-.2,74.32-7-4.053m19.665,13.341.219-77.877,6.953,4.034-.219,77.858-6.953-4.015m1.982-112.742a3.139,3.139,0,0,1-.154-1.008c0-1.258.873-1.756,1.974-1.128a4.294,4.294,0,0,1,1.963,3.4c0,1.251-.9,1.763-1.975,1.128a4.151,4.151,0,0,1-1.565-1.77l-16.329,1.758a3.263,3.263,0,0,1,.166.974c-.012,1.258-.9,1.759-1.936,1.155a4.252,4.252,0,0,1-1.732-2.194l-16.047-2.116a3.07,3.07,0,0,1,.064.589c0,1.2-.885,1.705-1.974,1.078a4.316,4.316,0,0,1-1.975-3.348,1.938,1.938,0,0,1,.142-.722L318.6,206.211a1.23,1.23,0,0,1-1.59.064,4.272,4.272,0,0,1-1.347-1.4L298.949,211.5a3.576,3.576,0,0,1,.323,1.424c0,1.243-.885,1.758-1.975,1.128a3.981,3.981,0,0,1-1.142-1.09l-17.077,11.673a3.89,3.89,0,0,1,.481,1.744c-.012,1.2-.885,1.7-1.975,1.077a3.807,3.807,0,0,1-1.27-1.282l-16.8,7.632a3.8,3.8,0,0,1,.323,1.462c0,1.251-.847,1.77-1.939,1.143a4.332,4.332,0,0,1-1.982-3.385,1.488,1.488,0,0,1,.436-1.166L239.51,202.083a1.583,1.583,0,0,1-1.231-.24,4.226,4.226,0,0,1-1.924-3.322c.012-.769.346-1.258.846-1.373l-17.7-47.863a1.639,1.639,0,0,1-.721-.241,3.628,3.628,0,0,1-1.051-.95L200.46,162.821a4.01,4.01,0,0,1,.539,1.886c0,1.25-.886,1.758-1.937,1.142a4.165,4.165,0,0,1-1.513-1.683l-16.444,2.59a3.142,3.142,0,0,1,.193,1.051c0,1.258-.885,1.758-1.936,1.162a4.328,4.328,0,0,1-1.963-3.406c0-1.2.885-1.705,1.975-1.078a3.957,3.957,0,0,1,1.488,1.684l16.445-2.617a3.408,3.408,0,0,1-.205-1.1c.012-1.258.885-1.755,1.975-1.128a3.624,3.624,0,0,1,1.039.95l17.255-14.712a4.036,4.036,0,0,1-.566-1.912c.012-1.258.885-1.72,1.989-1.078a4.215,4.215,0,0,1,1.913,3.329c0,.75-.32,1.239-.809,1.373l17.7,47.863a1.7,1.7,0,0,1,.692.241,4.32,4.32,0,0,1,1.963,3.4,1.411,1.411,0,0,1-.423,1.143L256.7,231.689a1.5,1.5,0,0,1,1.2.223,3.734,3.734,0,0,1,1.282,1.3l16.817-7.6a3.682,3.682,0,0,1-.347-1.455c0-1.258.885-1.758,1.936-1.154a3.778,3.778,0,0,1,1.143,1.077l17.1-11.622a3.949,3.949,0,0,1-.481-1.8c0-1.244.885-1.706,1.975-1.078a4.048,4.048,0,0,1,1.347,1.373l16.728-6.607a3.627,3.627,0,0,1-.334-1.412c0-1.257.9-1.758,1.974-1.128a4.258,4.258,0,0,1,1.924,3.387,1.735,1.735,0,0,1-.129.722L335,224.961a1.262,1.262,0,0,1,1.643-.05,4.393,4.393,0,0,1,1.732,2.205l16.047,2.117a2.448,2.448,0,0,1-.065-.6c0-1.262.885-1.763,1.975-1.135a4.19,4.19,0,0,1,1.539,1.8l16.305-1.778"/>
        <path id="Shape-19" data-name="Shape" class="cls-5" d="M182.7,220.916l-7-4.041-.036,13.2,7,4.052.038-13.211"/>
        <path id="Shape-20" data-name="Shape" class="cls-4" d="M182.75,202.418l-7-4.053-.053,18.51,7,4.041.053-18.5"/>
        <path id="Shape-21" data-name="Shape" class="cls-5" d="M202.389,223.352l-7-4.033-.063,22.12,7,4.041.065-22.128"/>
        <path id="Shape-22" data-name="Shape" class="cls-4" d="M202.427,208.664l-7-4.041-.038,14.7,7,4.033.038-14.688"/>
        <path id="Shape-23" data-name="Shape" class="cls-5" d="M222.092,205.92l-6.965-4.015-.14,50.889,6.951,4.014.154-50.888"/>
        <path id="Shape-24" data-name="Shape" class="cls-5" d="M241.694,237.271,234.7,233.23l-.089,30.89,7,4.041.077-30.89"/>
        <path id="Shape-25" data-name="Shape" class="cls-4" d="M241.733,224.4l-7-4.038L234.7,233.23l6.992,4.041.039-12.868"/>
        <path id="Shape-26" data-name="Shape" class="cls-5" d="M261.282,263.978l-6.965-4.014-.039,15.509,6.953,4.033.051-15.528"/>
        <path id="Shape-27" data-name="Shape" class="cls-5" d="M280.935,280.206l-7.007-4.055-.024,10.66,7,4.043.027-10.648"/>
        <path id="Shape-28" data-name="Shape" class="cls-4" d="M281.024,248.2l-7-4.041-.092,31.992,7.007,4.055.089-32.006"/>
        <path id="Shape-29" data-name="Shape" class="cls-5" d="M300.638,263.528l-6.965-4.007-.1,38.644,6.953,4.015.116-38.652"/>
        <path id="Shape-30" data-name="Shape" class="cls-4" d="M300.676,250.136l-6.965-4.007-.038,13.392,6.965,4.007.038-13.392"/>
        <path id="Shape-31" data-name="Shape" class="cls-5" d="M320.38,247.52l-7-4.041-.181,66.012,7,4.041.181-66.012"/>
        <path id="Shape-32" data-name="Shape" class="cls-5" d="M339.864,310.172l-6.963-4.017-.041,14.689,6.954,4.029.05-14.7"/>
        <path id="Shape-33" data-name="Shape" class="cls-4" d="M339.955,278.513,332.99,274.5l-.089,31.659,6.963,4.017.091-31.659"/>
        <path id="Shape-34" data-name="Shape" class="cls-5" d="M359.505,330.926l-7-4.052-.012,5.31,7,4.041.012-5.3"/>
        <path id="Shape-35" data-name="Shape" class="cls-4" d="M359.709,256.616l-7-4.041-.2,74.3,7,4.052.2-74.31"/>
        <path id="Shape-36" data-name="Shape" class="cls-5" d="M379.119,344.229l-6.953-4.014-.012,3.329,6.965,4.007v-3.322"/>
        <path id="Shape-37" data-name="Shape" class="cls-4" d="M379.335,266.371l-6.951-4.036-.218,77.88,6.953,4.014.216-77.858"/>
        <path id="Shape-38" data-name="Shape" class="cls-5" d="M179.364,164.459c-1.09-.628-1.975-.127-1.975,1.078a4.329,4.329,0,0,0,1.963,3.4c1.051.6,1.936.1,1.936-1.161a3.162,3.162,0,0,0-.192-1.051l-1.617.257-.24-.577,1.616-.258a3.951,3.951,0,0,0-1.489-1.683"/>
        <path id="Shape-39" data-name="Shape" class="cls-5" d="M200.453,162.8l-1.258,1.078-1.655.257a4.167,4.167,0,0,0,1.513,1.684c1.051.615,1.936.108,1.936-1.143a4.01,4.01,0,0,0-.539-1.885m-1.385-1.5c-1.09-.628-1.963-.13-1.975,1.128a3.409,3.409,0,0,0,.205,1.1l1.613-.253,1.2-1.027a3.624,3.624,0,0,0-1.039-.95"/>
        <path id="Shape-40" data-name="Shape" class="cls-5" d="M218.732,147.219l-1.013.858a3.641,3.641,0,0,0,1.051.95,1.647,1.647,0,0,0,.722.241l-.758-2.052m.051-2.667c-1.1-.642-1.975-.18-1.989,1.077a4.039,4.039,0,0,0,.565,1.913l1.443-1.232.166.481.909,2.463a1.284,1.284,0,0,0,.808-1.373,4.213,4.213,0,0,0-1.912-3.329"/>
        <path id="Shape-41" data-name="Shape" class="cls-5" d="M237.192,197.145c-.5.116-.835.6-.847,1.374a4.22,4.22,0,0,0,1.924,3.321,1.582,1.582,0,0,0,1.232.241l-1.388-2.446-.924-2.49m1.09.219a1.683,1.683,0,0,0-.693-.24l.9,2.431,1.335,2.348a1.411,1.411,0,0,0,.423-1.143,4.3,4.3,0,0,0-1.963-3.4"/>
        <path id="Shape-42" data-name="Shape" class="cls-5" d="M256.344,231.857a1.487,1.487,0,0,0-.433,1.166,4.329,4.329,0,0,0,1.963,3.4c1.092.628,1.938.108,1.938-1.142a3.806,3.806,0,0,0-.322-1.463l-1.6.722-.166-.3-1.373-2.4m1.539.045a1.5,1.5,0,0,0-1.2-.223l1.2,2.1,1.282-.577a3.722,3.722,0,0,0-1.282-1.3"/>
        <path id="Shape-43" data-name="Shape" class="cls-5" d="M279.061,224.649l-1.3.873-1.475.666a3.808,3.808,0,0,0,1.27,1.282c1.09.628,1.963.127,1.975-1.078a3.886,3.886,0,0,0-.481-1.743m-1.489-1.655c-1.051-.6-1.936-.1-1.936,1.154a3.672,3.672,0,0,0,.346,1.456l1.443-.662,1.282-.873a3.791,3.791,0,0,0-1.142-1.078"/>
        <path id="Shape-44" data-name="Shape" class="cls-5" d="M298.945,211.512l-1.528.589-1.27.873a3.981,3.981,0,0,0,1.143,1.089c1.089.628,1.975.116,1.975-1.128a3.588,3.588,0,0,0-.323-1.423m-1.642-1.937c-1.09-.627-1.975-.166-1.975,1.078a3.925,3.925,0,0,0,.481,1.8l1.308-.9,1.528-.6a4.079,4.079,0,0,0-1.347-1.374"/>
        <path id="Shape-45" data-name="Shape" class="cls-5" d="M317.02,204.356l-1.359.539a4.262,4.262,0,0,0,1.347,1.4,1.225,1.225,0,0,0,1.589-.065l-1.577-1.873m0-2.552c-1.078-.628-1.975-.128-1.975,1.128a3.653,3.653,0,0,0,.334,1.412l1.605-.635.129.173,1.706,2.02a1.744,1.744,0,0,0,.13-.721,4.287,4.287,0,0,0-1.925-3.387"/>
        <path id="Shape-46" data-name="Shape" class="cls-5" d="M334.772,225.3a1.938,1.938,0,0,0-.142.721,4.32,4.32,0,0,0,1.975,3.348c1.09.628,1.975.13,1.975-1.077a3.153,3.153,0,0,0-.065-.589l-1.912-.255-.128-.116-1.705-2.027m1.847-.412a1.262,1.262,0,0,0-1.643.051l1.629,1.924,1.743.241a4.395,4.395,0,0,0-1.731-2.206"/>
        <path id="Shape-47" data-name="Shape" class="cls-5" d="M358.069,229.882l-1.643.166-1.859-.24A4.254,4.254,0,0,0,356.3,232c1.039.6,1.924.1,1.936-1.154a3.257,3.257,0,0,0-.166-.974m-1.758-2.4c-1.09-.628-1.975-.128-1.975,1.135a2.438,2.438,0,0,0,.065.6l1.821.241,1.628-.181a4.187,4.187,0,0,0-1.539-1.8"/>
        <path id="Shape-48" data-name="Shape" class="cls-5" d="M375.975,225.368c-1.1-.628-1.974-.13-1.974,1.128a3.139,3.139,0,0,0,.154,1.008l1.683-.188.255.63-1.683.181a4.151,4.151,0,0,0,1.565,1.77c1.078.635,1.963.13,1.975-1.128a4.315,4.315,0,0,0-1.963-3.4"/>
        <path id="Shape-49" data-name="Shape" class="cls-4" d="M239.821,201.9a.9.9,0,0,1-.32.181l16.836,29.773a.91.91,0,0,1,.346-.18L239.821,201.9M197.3,163.535l-16.447,2.624a3.793,3.793,0,0,1,.241.578l16.444-2.591a4.4,4.4,0,0,1-.24-.6m22.589-14.285a1.648,1.648,0,0,1-.4.02l17.7,47.863a.9.9,0,0,1,.4-.02l-17.7-47.863m-2.528-1.712-17.245,14.707a4.989,4.989,0,0,1,.346.551l17.267-14.727a5.343,5.343,0,0,1-.358-.538m156.789,79.953-16.3,1.777a3.405,3.405,0,0,1,.219.6l16.329-1.758a5.805,5.805,0,0,1-.241-.623"/>
        <path id="Shape-50" data-name="Shape" class="cls-5" d="M180.85,166.159l-1.616.241.241.577,1.616-.257a3.74,3.74,0,0,0-.241-.577"/>
        <path id="Shape-51" data-name="Shape" class="cls-5" d="M200.111,162.253l-1.2,1.027-1.6.258a4.55,4.55,0,0,0,.241.6l1.654-.258,1.258-1.077a4.989,4.989,0,0,0-.346-.551"/>
        <path id="Shape-52" data-name="Shape" class="cls-5" d="M218.809,146.31l-1.443,1.231a5.358,5.358,0,0,0,.358.539l1.013-.859.757,2.052a1.6,1.6,0,0,0,.4-.02l-.909-2.462-.166-.481"/>
        <path id="Shape-53" data-name="Shape" class="cls-5" d="M237.589,197.126a.9.9,0,0,0-.4.019l.923,2.49,1.386,2.451a.9.9,0,0,0,.32-.181l-1.335-2.347-.9-2.432"/>
        <path id="Shape-54" data-name="Shape" class="cls-4" d="M275.982,225.6l-16.817,7.6a4.61,4.61,0,0,1,.32.616l16.805-7.632a5.915,5.915,0,0,1-.308-.584m19.834-13.154-17.1,11.621a4.331,4.331,0,0,1,.346.578l17.077-11.673a5.128,5.128,0,0,1-.334-.526m58.585,16.766L338.344,227.1a3.618,3.618,0,0,1,.166.6l16.047,2.117a3.971,3.971,0,0,1-.166-.6m-39.014-24.874-16.728,6.607a4.736,4.736,0,0,1,.3.565l16.716-6.619a4.029,4.029,0,0,1-.282-.551m3.437,1.559a1.015,1.015,0,0,1-.219.327L334.772,225.3a1.161,1.161,0,0,1,.2-.358L318.814,205.9"/>
        <path id="Shape-55" data-name="Shape" class="cls-5" d="M256.688,231.679a.91.91,0,0,0-.346.18l1.373,2.406.166.295,1.6-.721a4.609,4.609,0,0,0-.32-.616l-1.282.577-1.2-2.1"/>
        <path id="Shape-56" data-name="Shape" class="cls-5" d="M278.715,224.071l-1.282.873-1.443.662a5.505,5.505,0,0,0,.308.584l1.474-.666,1.3-.873a4.319,4.319,0,0,0-.346-.577"/>
        <path id="Shape-57" data-name="Shape" class="cls-5" d="M298.649,210.949l-1.527.6-1.309.9c.1.18.219.358.334.526l1.27-.873,1.528-.589a4.736,4.736,0,0,0-.3-.565"/>
        <path id="Shape-58" data-name="Shape" class="cls-5" d="M316.981,203.707l-1.6.635a4.021,4.021,0,0,0,.281.551l1.359-.539,1.578,1.873a1.05,1.05,0,0,0,.219-.327l-1.7-2.02-.13-.173"/>
        <path id="Shape-59" data-name="Shape" class="cls-5" d="M334.977,224.942a1.161,1.161,0,0,0-.2.358l1.706,2.028.127.115,1.912.255a3.615,3.615,0,0,0-.166-.6l-1.744-.241-1.628-1.924"/>
        <path id="Shape-60" data-name="Shape" class="cls-5" d="M357.85,229.279l-1.628.18-1.821-.24a3.931,3.931,0,0,0,.166.6l1.859.241,1.643-.166a3.405,3.405,0,0,0-.219-.6"/>
        <path id="Shape-61" data-name="Shape" class="cls-5" d="M375.833,227.316l-1.683.188a5.8,5.8,0,0,0,.24.623l1.684-.181-.255-.63"/>
        <path id="Shape-62" data-name="Shape" class="cls-5" d="M375.319,181.68l-34.548-19.951c.094,10.927,7.747,24.114,17.218,29.584s17.171,1.14,17.318-9.638"/>
        <path id="Shape-63" data-name="Shape" class="cls-4" d="M370.434,164.716l-11.9,6.766,16.783,9.7a35,35,0,0,0-4.885-16.458"/>
        <path id="Shape-64" data-name="Shape" class="cls-6" d="M358.1,151.6c-9.472-5.467-17.17-1.145-17.317,9.637l17.163,9.91,12.194-6.975a34.968,34.968,0,0,0-12.025-12.582"/>
        <path id="Shape-65" data-name="Shape" class="cls-2" d="M394.238,173.6l-12.307-7.1-.01,2.43,12.31,7.1.007-2.43"/>
        <path id="Shape-66" data-name="Shape" class="cls-3" d="M396.787,178.765l-14.866-8.586,0,1.5,14.864,8.584,0-1.5"/>
        <path id="Shape-67" data-name="Shape" class="cls-3" d="M396.783,180.956l-14.869-8.586-.005,1.5,14.869,8.589,0-1.5"/>
        <path id="Shape-68" data-name="Shape" class="cls-2" d="M394.2,187.133l-12.307-7.11-.007,2.417,12.307,7.1.007-2.412"/>
        <path id="Shape-69" data-name="Shape" class="cls-3" d="M396.749,192.287,381.885,183.7l-.005,1.5,14.864,8.587.005-1.5"/>
        <path id="Shape-70" data-name="Shape" class="cls-3" d="M396.744,194.478l-14.869-8.586-.005,1.5,14.872,8.589,0-1.5"/>
        <path id="Shape-71" data-name="Shape" class="cls-2" d="M394.163,200.655l-12.309-7.11-.008,2.429,12.308,7.11.009-2.429"/>
        <path id="Shape-72" data-name="Shape" class="cls-3" d="M396.71,205.806l-14.864-8.584,0,1.5,14.864,8.587,0-1.5"/>
        <path id="Shape-73" data-name="Shape" class="cls-3" d="M396.706,208l-14.869-8.587-.005,1.5L396.7,209.5l0-1.5"/>
        <g id="Group" transform="translate(288.862 40.167)">
          <path id="Shape-74" data-name="Shape" class="cls-2" d="M131.34,75.835.077.051.063,5.14,131.325,80.925l.015-5.089"/>
          <path id="Shape-75" data-name="Shape" class="cls-2" d="M131.308,87.349,70.255,52.1l0,2.28L131.3,89.629l.007-2.28"/>
          <path id="Shape-76" data-name="Shape" class="cls-2" d="M131.294,92.325,70.243,57.077l-.007,2.275L131.287,94.6l.007-2.275"/>
          <path id="Shape-77" data-name="Shape" class="cls-2" d="M131.28,97.3,70.229,62.049l-.007,2.278,61.053,35.248.005-2.278"/>
          <path id="Shape-78" data-name="Shape" class="cls-2" d="M131.265,102.271,70.214,67.02,70.207,69.3l61.053,35.25.005-2.277"/>
          <path id="Shape-79" data-name="Shape" class="cls-2" d="M131.251,107.245,70.2,71.994l-.007,2.278,61.053,35.248.005-2.275"/>
          <path id="Shape-80" data-name="Shape" class="cls-2" d="M131.239,112.216,70.186,76.968l-.007,2.275,61.053,35.247.008-2.275"/>
          <path id="Shape-81" data-name="Shape" class="cls-2" d="M65.262,49.217,4.209,13.969,4.2,16.247,65.255,51.495l.007-2.278"/>
          <path id="Shape-82" data-name="Shape" class="cls-2" d="M65.248,54.191,4.195,18.943l-.007,2.278L65.241,56.469l.007-2.278"/>
          <path id="Shape-83" data-name="Shape" class="cls-2" d="M65.233,59.165,4.18,23.917l0,2.278L65.226,61.443l.007-2.278"/>
          <path id="Shape-84" data-name="Shape" class="cls-2" d="M65.219,64.136,4.166,28.889l0,2.278L65.212,66.414l.007-2.278"/>
          <path id="Shape-85" data-name="Shape" class="cls-2" d="M65.2,69.11,9.6,37.008l0,2.278,55.6,32.1L65.2,69.11"/>
          <path id="Shape-86" data-name="Shape" class="cls-2" d="M65.19,74.084,15.04,45.128,15.032,47.4,65.185,76.36l0-2.275"/>
        </g>
        <path id="Shape-87" data-name="Shape" class="cls-1" d="M28.963,245.944A19.483,19.483,0,1,0,.019,228.915s-.784,23.458,29.362,23.165a3.9,3.9,0,0,1-2.153-3.5A3.343,3.343,0,0,1,28.963,245.944Z"/>
        <path id="Shape-88" data-name="Shape" class="cls-7" d="M29.928,226.727l-1.587-1.588V222.9l-2.073-.858-.859-2.074H23.164l-1.587-1.587-2.073.859-2.073-.859-1.587,1.587H13.6l-.851,2.074-2.073.858v2.244l-1.587,1.588.859,2.073-.859,2.073,1.587,1.588v2.246l2.073.859.859,2.073H15.85l1.587,1.587,2.073-.858,2.073.858,1.587-1.587h2.244l.859-2.073,2.073-.859v-2.244l1.587-1.587-.859-2.074Zm-9.724,7.8v1.219a.7.7,0,0,1-1.39,0v-1.229a3.48,3.48,0,0,1-2.78-3.4.7.7,0,1,1,1.39,0,2.087,2.087,0,0,0,2.085,2.085,1.894,1.894,0,0,0,2.085-1.852c0-.9-.753-1.535-2.237-1.871-2.744-.628-3.319-2.1-3.319-3.226a3.228,3.228,0,0,1,2.78-3.182v-1.219a.7.7,0,0,1,1.39,0v1.229a3.46,3.46,0,0,1,2.732,2.824.7.7,0,1,1-1.371.24,2.077,2.077,0,0,0-2.056-1.736,1.894,1.894,0,0,0-2.085,1.852c0,.336,0,1.358,2.237,1.871,2.886.652,3.321,2.3,3.321,3.225A3.23,3.23,0,0,1,20.2,234.532Z"/>
      </g>
      <g id="People" transform="translate(101.018 232.821)">
        <path id="Shape-89" data-name="Shape" class="cls-8" d="M31.361,137.5c6.975,4.05,8.194,9.962,2.73,13.139s-15.634,2.463-22.609-1.585-8.194-9.962-2.73-13.139S24.4,133.449,31.361,137.5Z"/>
        <path id="Shape-90" data-name="Shape" class="cls-1" d="M4.329,41.129C1.785,46.523.637,55.187.216,62.706l7.381.782,7.057-18.193"/>
        <path id="Shape-91" data-name="Shape" class="cls-9" d="M5.953,78.585s.265,2.694.447,3.456c.115.481.188.818.279,1.171.125.481.156.722,0,.847s-.44.154-.722-.837a4.329,4.329,0,0,0,.914,1.814c.529.57,1.3,1.15,1.1,1.443s-.774,0-.774,0-.067.481-.77.1c0,0-.084.394-.794-.1,0,0-.281.327-.936-.327a11.067,11.067,0,0,1-3.04-7.9Z"/>
        <path id="Shape-92" data-name="Shape" class="cls-1" d="M.221,62.554C-.512,75.7,1.53,79.744,1.53,79.744l4.459.12,1.6-16.377"/>
        <circle id="Oval" class="cls-1" cx="3.714" cy="3.714" r="3.714" transform="translate(0.221 59.059)"/>
        <circle id="Oval-2" data-name="Oval" class="cls-1" cx="5.582" cy="5.582" r="5.582" transform="translate(3.75 38.011)"/>
        <path id="Shape-93" data-name="Shape" class="cls-10" d="M27.871,144.931c1.515-1.515,3.35-2.14,4.089-1.392s.128,2.583-1.388,4.1-3.35,2.14-4.089,1.392c-.452-.452-.416-2.292-.416-2.749C26.317,145.816,27.267,145.533,27.871,144.931Z"/>
        <path id="Shape-94" data-name="Shape" class="cls-9" d="M27.9,144.768c.988-.943,2.165-1.309,2.646-.82s.043,1.65-.943,2.59"/>
        <path id="Shape-95" data-name="Shape" class="cls-10" d="M15.311,137.574c1.515-1.515,3.35-2.141,4.089-1.393s.125,2.583-1.39,4.1-3.35,2.141-4.089,1.393c-.452-.452-.416-2.292-.416-2.749C13.76,138.459,14.71,138.178,15.311,137.574Z"/>
        <path id="Shape-96" data-name="Shape" class="cls-9" d="M15.34,137.41c.989-.942,2.165-1.308,2.646-.82s.043,1.65-.943,2.591"/>
        <path id="Shape-97" data-name="Shape" class="cls-11" d="M37.04,75.275,5.869,76.338l6.1,38.656,1.4,23.763c.027.811.743,1.467,2.069,1.467s1.8-.721,1.833-1.522c0,0,2.242-15.076,3.341-24.682a139.557,139.557,0,0,0,.786-15.206l3.367,20.926L25.8,145.776v.081c0,.806.782,1.468,2.242,1.465,1.39,0,1.924-.676,1.982-1.443C30.195,145,34,125.991,34.943,118.1,35.895,110.027,38.242,77.805,37.04,75.275Z"/>
        <path id="Shape-98" data-name="Shape" class="cls-1" d="M39.527,48.532c1.092,7.658.678,36.446.678,36.446,0,6.143-1.547,10.982-9.974,12.163a14.148,14.148,0,0,1-4.741-.289c-6.516-1.393-14.419-6.095-17.5-8.882C2.821,83.3,3.033,78.887,3.033,75.044V46.961c0,.019,0-9.433,7.983-12.507,6.073-2.338,15.42-.195,20.3,2.562C31.32,37.018,38.389,40.551,39.527,48.532Z"/>
        <path id="Shape-99" data-name="Shape" class="cls-8" d="M38.916,45.961a4.481,4.481,0,0,0-3.288-1.52c-4.873,0-4.541,5.532-4.541,5.532V80.954c0,11.918-2.7,15.225-4.462,16.115a12.888,12.888,0,0,0,3.608.082c8.418-1.181,9.974-6.013,9.974-12.163,0,0,.414-28.788-.678-36.446A14.581,14.581,0,0,0,38.916,45.961Z"/>
        <path id="Shape-100" data-name="Shape" class="cls-9" d="M18.65,33.153a9.954,9.954,0,0,1-1.443-5.385c.019-1.806-.113-4.233.647-5.592,1.183-2.112,3.692-2.718,5.847-2.7,3.538.036,6.369,3.807,6.321,8.418A9.4,9.4,0,0,1,27.4,34.553v.6c-.027.625-.445.676-1.265,1.152a6.8,6.8,0,0,1-6.177,0,2.208,2.208,0,0,1-1.287-1.753v-1.4"/>
        <path id="Shape-101" data-name="Shape" class="cls-12" d="M23.53,34.805c3.536-.382,4.43-2.271,5.008-5.051,5.306-4.762,3.288-11.944,3.064-12.471a1.577,1.577,0,0,1-1.092.7,1.032,1.032,0,0,0,.079-.707c-.9,1.393-6.542-.767-8.777-1.248S19.251,17,19.251,17s-1.626-.8-2.869,1.91c-.921,2.006-.8,7.155.079,9.681C17.418,31.337,18.481,35.351,23.53,34.805Z"/>
        <path id="Shape-102" data-name="Shape" class="cls-13" d="M28.535,29.754a8.308,8.308,0,0,1-1.143,3.1v1.7a9.318,9.318,0,0,0,2.619-6.419A10.77,10.77,0,0,1,28.535,29.754Z"/>
        <path id="Shape-103" data-name="Shape" class="cls-14" d="M22.984,35.96a8.465,8.465,0,0,0,4.6-.786s1.813.779,2.258.986c0,0-5.883,2.429-9.9.505-3.531-1.684-1.792-3.187-1.792-3.187l.505-.2v.878S19.241,35.63,22.984,35.96Z"/>
        <path id="Shape-104" data-name="Shape" class="cls-1" d="M26.2,48.871l4.731,24.494,8.914-1.652s-.055-1.867-.108-4.236C39.5,57.4,40.4,50.119,38.577,44.869c-.866-2.5-13.743-1.429-12.377,4"/>
        <path id="Shape-105" data-name="Shape" class="cls-9" d="M36.924,91.9s1.765,4.772,1.734,5.756c-.027.82-.214,1.308.272,1.551.652.327.909-.164.909-.164a.736.736,0,0,0,1.118-.341s.64.423.943-.6c0,0,.688.568.871-1.376.216-2.3-1.578-5.859-1.595-5.9Z"/>
        <path id="Shape-106" data-name="Shape" class="cls-9" d="M39.048,99.255a1.58,1.58,0,0,1-.9-1.015c-.26-.8.163-1.532.919-1.518C39.07,96.722,40.525,99.5,39.048,99.255Z"/>
        <path id="Shape-107" data-name="Shape" class="cls-1" d="M39.835,71.609,41.867,93.03,37.55,95.067a141.368,141.368,0,0,1-6.735-22.128"/>
        <circle id="Oval-3" data-name="Oval" class="cls-1" cx="4.563" cy="4.563" r="4.563" transform="translate(29.075 70.299) rotate(-29.15)"/>
        <circle id="Oval-4" data-name="Oval" class="cls-1" cx="6.583" cy="6.583" r="6.583" transform="translate(26.062 41.147) rotate(-0.22)"/>
        <path id="Shape-108" data-name="Shape" class="cls-8" d="M73.966,125.471c6.975,4.05,8.195,9.962,2.73,13.14s-15.634,2.462-22.609-1.585-8.194-9.963-2.73-13.14S67,121.423,73.966,125.471Z"/>
        <path id="Shape-109" data-name="Shape" class="cls-1" d="M47.012,25.339C44.467,30.733,43.32,39.4,42.9,46.913l7.382.782L57.337,29.5"/>
        <path id="Shape-110" data-name="Shape" class="cls-15" d="M48.642,62.794s.264,2.694.447,3.454c.116.481.188.818.279,1.171.125.481.156.722,0,.847s-.44.154-.721-.837a4.328,4.328,0,0,0,.914,1.813c.529.57,1.3,1.147,1.1,1.443s-.775,0-.775,0-.067.481-.77.1c0,0-.084.394-.794-.1,0,0-.281.327-.936-.327a11.067,11.067,0,0,1-3.04-7.9Z"/>
        <path id="Shape-111" data-name="Shape" class="cls-1" d="M42.911,46.764c-.734,13.149,1.308,17.187,1.308,17.187l4.459.12,1.6-16.377"/>
        <circle id="Oval-5" data-name="Oval" class="cls-1" cx="3.714" cy="3.714" r="3.714" transform="translate(42.911 43.269)"/>
        <circle id="Oval-6" data-name="Oval" class="cls-1" cx="5.582" cy="5.582" r="5.582" transform="translate(46.437 22.221)"/>
        <path id="Shape-112" data-name="Shape" class="cls-16" d="M72.908,135.614c-1.508,1.51-3.341,2.128-4.089,1.38s-.132-2.578,1.378-4.089,3.341-2.128,4.089-1.383c.452.453.419,1.634.421,2.088A12.974,12.974,0,0,1,72.908,135.614Z"/>
        <path id="Shape-113" data-name="Shape" class="cls-9" d="M72.9,134.053c-.988.943-2.165,1.311-2.646.82s-.043-1.65.943-2.593,2.165-1.308,2.646-.82S73.885,133.112,72.9,134.053Z"/>
        <path id="Shape-114" data-name="Shape" class="cls-16" d="M59.389,127.883c-1.443,1.444-3.208,2.047-3.928,1.326s-.128-2.478,1.323-3.928,3.208-2.044,3.928-1.328c.435.433.4,1.571.4,2.006A13.233,13.233,0,0,1,59.389,127.883Z"/>
        <path id="Shape-115" data-name="Shape" class="cls-9" d="M59.379,126.375c-.95.907-2.083,1.258-2.53.789s-.043-1.582.907-2.489,2.083-1.258,2.53-.787S60.324,125.471,59.379,126.375Z"/>
        <path id="Shape-116" data-name="Shape" class="cls-9" d="M74.257,107.324s3.836-21.476,5.724-35.248L50.509,66.491c-.139,6.7-.373,19.46.38,28.7,1.135,13.914,6.2,30.031,6.2,30.031.106.506.394.835,1.513.835a1.786,1.786,0,0,0,1.869-1.573l-.257-21.767,2.439-19s1.181,14.157,2.056,21.717S70.664,132.9,70.664,132.9c0,.791-.036.981,1.313.981a1.877,1.877,0,0,0,2.052-1.71Z"/>
        <path id="Shape-117" data-name="Shape" class="cls-5" d="M67.246,99.854a11.105,11.105,0,0,0,4.236.257c4.346-.609,8.9-5.325,8.9-5.325V89.254c0-5.878-.022-28.2-.022-28.2-.149-1.535-.334-2.985-.582-4.356a14.255,14.255,0,0,0-5.832-9.3,11.49,11.49,0,0,0-1.5-.988c-4.365-2.463-12.714-4.377-18.14-2.29-7.131,2.744-7.131,11.189-7.131,11.172V87.346A72.715,72.715,0,0,0,55.93,94,66.3,66.3,0,0,0,67.246,99.854Z"/>
        <path id="Shape-118" data-name="Shape" class="cls-1" d="M81.694,33.875c1.092,7.658.678,36.443.678,36.443,0,6.143-1.546,10.982-9.974,12.163a14.088,14.088,0,0,1-4.741-.289C61.142,80.8,53.239,76.1,50.155,73.31,44.989,68.639,45.2,64.228,45.2,60.384V32.3c0,.019,0-9.433,7.983-12.507,6.073-2.338,15.42-.195,20.3,2.562C73.49,22.356,80.559,25.887,81.694,33.875Z"/>
        <path id="Shape-119" data-name="Shape" class="cls-17" d="M81.086,31.3a4.481,4.481,0,0,0-3.288-1.52c-4.873,0-4.541,5.532-4.541,5.532V66.289c0,11.918-2.7,15.225-4.462,16.115a12.88,12.88,0,0,0,3.608.082c8.418-1.181,9.974-6.013,9.974-12.163,0,0,.414-28.788-.678-36.443A14.583,14.583,0,0,0,81.086,31.3Z"/>
        <path id="Shape-120" data-name="Shape" class="cls-15" d="M77.17,77.307s-.214,2.7-.385,3.464c-.108.481-.173.82-.26,1.176-.118.481-.144.722.022.847s.445.147.707-.849a4.328,4.328,0,0,1-.88,1.83c-.517.58-1.282,1.171-1.07,1.467s.774-.014.774-.014.077.481.77.091c0,0,.091.392.794-.118,0,0,.286.322.928-.344A11.027,11.027,0,0,0,81.456,76.9Z"/>
        <path id="Shape-121" data-name="Shape" class="cls-1" d="M76.083,58.533l.738,21.844,4.276-.132s3.266-8.594,4.069-22.313"/>
        <circle id="Oval-7" data-name="Oval" class="cls-1" cx="4.563" cy="4.563" r="4.563" transform="translate(75.964 53.467) rotate(-1.03)"/>
        <path id="Shape-122" data-name="Shape" class="cls-1" d="M69.156,35.575l7.11,23.778,8.9-1.486s.142-2.205.144-4.57c0-9.972-1.417-17.471-4.11-22.784"/>
        <circle id="Oval-8" data-name="Oval" class="cls-1" cx="6.542" cy="6.542" r="6.542" transform="translate(68.769 26.886) rotate(-0.22)"/>
        <path id="Shape-123" data-name="Shape" class="cls-5" d="M55.911,42.293a.315.315,0,0,1-.26-.257L53.5,29.841c-.067-.279-1.585-6.881,2.518-10.181a9.214,9.214,0,0,1,5.7-2.131,5.853,5.853,0,0,1,5.419,3.184c1.159,2.278-.322,4.3-2.376,7.088a48.632,48.632,0,0,0-3.608,5.448l-4.916,8.882a.315.315,0,0,1-.277.164Zm.505-22.128c-3.791,3.047-2.316,9.476-2.3,9.561l2,11.336,4.49-8.115a49.162,49.162,0,0,1,3.649-5.518c1.992-2.708,3.3-4.5,2.323-6.427a5.227,5.227,0,0,0-4.856-2.84,8.584,8.584,0,0,0-5.313,2Z"/>
        <g id="Group-2" data-name="Group" transform="translate(54.117 40.407)">
          <path id="Shape-124" data-name="Shape" class="cls-4" d="M2.679,4.664,2.672,7.107,1.1,6.2l.007-2.446Z"/>
          <path id="Shape-125" data-name="Shape" class="cls-5" d="M2.076,3.615l1.53.883-.017,6.287L.168,8.81.185,2.523l1.53.883Zm-.962.139V6.2l1.573.909V4.664Zm2.23,4.779V8.293L.457,6.624v.241Zm0,.688V8.981L.457,7.312v.241L3.343,9.219Zm0,.685V9.666L.457,8v.241Z"/>
          <path id="Shape-126" data-name="Shape" class="cls-4" d="M3.338,8.283l0,.25L.447,6.864v-.25Z"/>
          <path id="Shape-127" data-name="Shape" class="cls-2" d="M2.672,1.109,2.405,2.865l-.327-.188-.361-.209-.332-.19L1.133.219Z"/>
        </g>
        <path id="Shape-128" data-name="Shape" class="cls-4" d="M57.45,50.066l0,.25-2.889-1.669,0-.248Z"/>
        <path id="Shape-129" data-name="Shape" class="cls-4" d="M57.452,49.381l0,.248-2.889-1.669v-.248Z"/>
        <path id="Shape-130" data-name="Shape" class="cls-18" d="M66.143,4.827s4.892-5.051,6.785,1.631a9.056,9.056,0,0,1,.053,5.575c-1,2.689-2.735,4.26-.481,6.155,0,0-6.155-1.578-6.785-9.731C65.712,8.457,65.344,5.563,66.143,4.827Z"/>
        <path id="Shape-131" data-name="Shape" class="cls-6" d="M53.587,10.034a10.584,10.584,0,0,0,.289,3.812c.657,2.446-1.051,2.237-1.051,2.237s2.21.209,1.631-1.684a3.286,3.286,0,0,1,.106-2.472S54.323,10.087,53.587,10.034Z"/>
        <path id="Shape-132" data-name="Shape" class="cls-9" d="M60.519,4.231c-2.052-.082-4.457.426-5.645,2.405-.765,1.272-.7,3.589-.774,5.308A10.634,10.634,0,0,0,57.14,20v.827a2.316,2.316,0,0,0,1.347,1.833,7.109,7.109,0,0,0,6.458,0,2.3,2.3,0,0,0,1.323-1.8V12.709c0-.1.014-.195.017-.291C66.477,8.036,63.886,4.365,60.519,4.231Z"/>
        <path id="Shape-133" data-name="Shape" class="cls-19" d="M59.841,21.166a4.373,4.373,0,0,1-2.7-1.171v.827a2.316,2.316,0,0,0,1.347,1.833,7.109,7.109,0,0,0,6.458,0,2.3,2.3,0,0,0,1.323-1.8V12.709C66,17.019,63.136,21.3,59.841,21.166Z"/>
        <path id="Shape-134" data-name="Shape" class="cls-6" d="M64.459,12.533c.116-.544.224-.95.794-.9a1.121,1.121,0,0,1,1.027,1.1,8.072,8.072,0,0,1-.722,3.3l.722,2.646C73.033,10.039,67.6,2.458,67.6,2.458A4.718,4.718,0,0,0,63.16.827C60.435-.2,55.944-.447,53.929,3.459c0,0-1.9,2.47-.688,6.626l.863,2.886a8.071,8.071,0,0,1,0-1.022c.029-.7.036-1.506.087-2.3,7.1.014,8.584-2.475,8.584-2.475A9.673,9.673,0,0,0,63.256,11a7.612,7.612,0,0,0,.395,2.816s.722,1.89-.159,2.547a1.665,1.665,0,0,0,.868-2.131A6.767,6.767,0,0,1,64.459,12.533Z"/>
        <path id="Shape-135" data-name="Shape" class="cls-20" d="M72.918,6.456c-1.094-3.86-3.189-3.8-4.765-3.067a13.361,13.361,0,0,1,.188,11.973A9.03,9.03,0,0,0,72.5,18.186c-2.261-1.893-.527-3.471.481-6.155A8.954,8.954,0,0,0,72.918,6.456Z"/>
      </g>
      <g id="Floor_Shadow" transform="translate(244.607 384.107)">
        <g id="_Group_">
          <path id="Shape-136" data-name="Shape" class="cls-21" d="M47.382,4.726c-10.838-6.253-28.35-6.253-39.118,0s-10.71,16.4.127,22.657,28.35,6.253,39.118,0,10.71-16.4-.127-22.659"/>
        </g>
      </g>
      <g id="Mag_Glass" transform="translate(195.541 126.753)">
        <g id="_Group_2">
          <g id="_Group_3">
            <g id="_Group_4" transform="translate(62.535 199.149)">
              <path id="_Path_" class="cls-5" d="M28.295,71.876V8.95c-.291,1.835-1.655,3.625-4.089,5.029-5.532,3.194-14.5,3.194-20.03,0C1.789,12.6.435,10.852.108,9.058v63.42l.087.05c-.077,2.138,1.294,4.289,4.12,5.922a20.494,20.494,0,0,0,10.256,2.379,20.2,20.2,0,0,0,9.669-2.379c2.391-1.381,3.742-3.127,4.055-4.938A4.748,4.748,0,0,0,28.295,71.876Z"/>
              <path id="_Path_2" class="cls-22" d="M24.208,2.417A20.4,20.4,0,0,0,14.368.024,20.549,20.549,0,0,0,4.178,2.417C1.792,3.8.438,5.544.111,7.338V9.06c.327,1.8,1.684,3.543,4.067,4.921,5.532,3.194,14.5,3.194,20.03,0,2.434-1.4,3.8-3.194,4.089-5.029C28.667,6.614,27.3,4.2,24.208,2.417Z"/>
            </g>
            <g id="_Group_5" transform="translate(68.067 146.475)">
              <path id="_Path_3" class="cls-23" d="M17.293,58.042V5.551a4.584,4.584,0,0,1-2.5,3.071,13.522,13.522,0,0,1-12.235,0A4.631,4.631,0,0,1,.077,5.616V58.407l.053.031c-.046,1.306.791,2.619,2.516,3.608A12.489,12.489,0,0,0,8.9,63.489a12.483,12.483,0,0,0,5.907-1.443,4.624,4.624,0,0,0,2.477-3.016A2.9,2.9,0,0,0,17.293,58.042Z"/>
              <path id="_Path_4" class="cls-24" d="M14.8,1.559A12.468,12.468,0,0,0,8.784.1,12.657,12.657,0,0,0,2.559,1.559,4.631,4.631,0,0,0,.075,4.565V5.616A4.636,4.636,0,0,0,2.559,8.623a13.522,13.522,0,0,0,12.235,0,4.589,4.589,0,0,0,2.5-3.071C17.519,4.122,16.687,2.651,14.8,1.559Z"/>
            </g>
            <path id="_Path_5" class="cls-23" d="M18.671,12.035l24.141,7.629,35.6,13.228,28.862,39.2,16.115,48.344-15.028,46.935,12.988-7.5c11.617-6.566,18.816-20.829,18.816-41.191,0-40.443-28.381-89.619-63.418-109.842C59.11-1.337,43.159-2.237,31.662,4.543Z"/>
            <path id="Shape-137" data-name="Shape" class="cls-25" d="M.1,53.09c0,40.443,28.381,89.619,63.417,109.843s63.417,3.829,63.417-36.614S98.55,36.7,63.514,16.476.1,12.649.1,53.09Zm13.693,6.886c0-32.275,22.659-45.355,50.607-29.218S115,86.139,115,118.414,92.359,163.769,64.4,147.64,13.789,92.251,13.789,59.976Z"/>
          </g>
        </g>
        <path id="Shape-138" data-name="Shape" class="cls-23" d="M36.183,24.386C30.76,30.563,27.595,39.943,27.595,52c0,32.275,22.659,71.518,50.607,87.657,10.446,6.032,20.153,7.98,28.213,6.371-9.087,10.342-24.516,11.706-42.021,1.6C36.443,131.5,13.786,92.251,13.786,59.976,13.789,39.765,22.676,27.08,36.183,24.386Z"/>
        <g id="Group-3" data-name="Group" transform="translate(21.166 21.166)">
          <g id="_Group_6" class="cls-26">
            <path id="_Path_6" class="cls-27" d="M101.631,94.449c.106,32.273-22.51,45.429-50.509,29.384S.33,68.615.224,36.342,22.734-9.087,50.732,6.958,101.525,62.176,101.631,94.449Z"/>
          </g>
          <g id="Shape-139" data-name="Shape" class="cls-28" transform="translate(13.95 25.735)">
            <path id="Path_1180" data-name="Path 1180" class="cls-29" d="M.063,58.326A122.778,122.778,0,0,0,11.006,74.767L70.356,15.03A119.191,119.191,0,0,0,59.194.046Z"/>
            <path id="Path_1181" data-name="Path 1181" class="cls-29" d="M26.938,91.055,81.076,36.345a120.476,120.476,0,0,0-5.934-13.034L16,80.67A98.584,98.584,0,0,0,26.938,91.055Z"/>
          </g>
        </g>
        <path id="Shape-140" data-name="Shape" class="cls-25" d="M.1,53.09c0,40.443,28.381,89.619,63.417,109.843s63.417,3.829,63.417-36.614S98.55,36.7,63.514,16.476.1,12.649.1,53.09Zm13.693,6.886c0-32.275,22.659-45.355,50.607-29.218S115,86.139,115,118.414,92.359,163.769,64.4,147.64,13.789,92.251,13.789,59.976Z"/>
      </g>
      <g id="Thumbs_Up" transform="translate(368.955 293.432)">
        <path id="Shape-141" data-name="Shape" class="cls-1" d="M36.52,18.421a18.241,18.241,0,1,0-27.1,15.951,3.127,3.127,0,0,1,1.621,2.463,3.647,3.647,0,0,1-2.013,3.273C37.251,40.368,36.52,18.421,36.52,18.421Z"/>
        <rect id="Rectangle-path" class="cls-5" width="4.587" height="8.724" rx="2.293" transform="translate(10.414 15.906)"/>
        <path id="Shape-142" data-name="Shape" class="cls-5" d="M25.341,15.795a1.722,1.722,0,0,0-.907-.26H21.267a13.456,13.456,0,0,0,.265-3.572,2.552,2.552,0,0,0-.736-1.5,1.6,1.6,0,0,0-.289-.229,1.133,1.133,0,0,0-.587-.171,1.15,1.15,0,0,0-1.147,1.147h0a6.015,6.015,0,0,1-.171,1.544A14.73,14.73,0,0,1,17,16.016a2.534,2.534,0,0,1-1.008.722V23.6a2.165,2.165,0,0,1,1.162.685,2.165,2.165,0,0,0,1.628.736h4.695a2.672,2.672,0,0,0,2.674-2.675v-5.1A1.72,1.72,0,0,0,25.341,15.795Z"/>
      </g>
      <g id="Layer_1-2" transform="translate(0 273.95)">
        <path id="Shape-143" data-name="Shape" class="cls-9" d="M471.721,92.946s.262,2.66.462,3.41c.115.462.185.806.276,1.157.125.462.157.722,0,.839s-.433.152-.721-.825a4.258,4.258,0,0,0,.921,1.792c.522.563,1.291,1.132,1.082,1.443s-.765,0-.765,0-.069.461-.76.1c0,0-.082.387-.784-.1,0,0-.276.322-.921-.323a10.889,10.889,0,0,1-3-7.8Z"/>
        <path id="Shape-144" data-name="Shape" class="cls-1" d="M466.057,77.115c-.722,12.988,1.294,16.973,1.294,16.973l4.4.125,1.58-16.177"/>
        <circle id="Oval-9" data-name="Oval" class="cls-1" cx="3.668" cy="3.668" r="3.668" transform="translate(466.059 73.659)"/>
        <path id="Shape-145" data-name="Shape" class="cls-8" d="M496.735,154.855c6.881,4,8.093,9.84,2.7,12.988s-15.444,2.434-22.32-1.568-8.094-9.84-2.7-12.988S489.853,150.848,496.735,154.855Z"/>
        <path id="Shape-146" data-name="Shape" class="cls-1" d="M470.109,55.961c-2.511,5.327-3.646,13.888-4.06,21.312l7.291.775,6.975-17.974"/>
        <circle id="Oval-10" data-name="Oval" class="cls-1" cx="5.513" cy="5.513" r="5.513" transform="translate(469.546 52.873)"/>
        <path id="Shape-147" data-name="Shape" class="cls-16" d="M494.286,164.878c-1.489,1.493-3.3,2.1-4.038,1.382s-.13-2.549,1.383-4.043,3.3-2.1,4.038-1.383c.462.462.414,1.614.414,2.062A13.845,13.845,0,0,1,494.286,164.878Z"/>
        <ellipse id="Oval-11" data-name="Oval" class="cls-9" cx="2.444" cy="1.207" rx="2.444" ry="1.207" transform="matrix(0.723, -0.691, 0.691, 0.723, 490.838, 163.262)"/>
        <path id="Shape-148" data-name="Shape" class="cls-16" d="M480.935,157.231c-1.443,1.444-3.165,2.018-3.879,1.309s-.126-2.449,1.308-3.88,3.165-2.018,3.879-1.308c.429.428.4,1.549.4,1.982A13.233,13.233,0,0,1,480.935,157.231Z"/>
        <ellipse id="Oval-12" data-name="Oval" class="cls-9" cx="2.345" cy="1.162" rx="2.345" ry="1.162" transform="matrix(0.723, -0.691, 0.691, 0.723, 477.628, 155.704)"/>
        <path id="Shape-149" data-name="Shape" class="cls-11" d="M496.066,136.925s3.788-21.2,5.655-34.815L472.6,96.578c-.137,6.614-.368,19.219.373,28.34,1.121,13.743,5.854,29.608,5.854,29.608.106.5.659.88,1.766.88,1.231,0,2.087-.414,2.087-1l-.5-22.058,2.406-18.76s1.166,13.984,2.032,21.449,5.291,26.676,5.291,26.676c0,.784.573,1.419,1.9,1.419s2.239-.577,2.249-1.349Z"/>
        <path id="Shape-150" data-name="Shape" class="cls-1" d="M504.366,64.377c1.078,7.564.669,36,.669,36,0,6.071-1.53,10.85-9.849,12.026a14,14,0,0,1-4.683-.286c-6.453-1.383-14.241-6.013-17.289-8.758-5.1-4.608-4.894-8.969-4.894-12.766V62.823s0-9.32,7.886-12.351c5.992-2.3,15.211-.192,20.052,2.53C496.263,53.008,503.241,56.5,504.366,64.377Z"/>
        <path id="Shape-151" data-name="Shape" class="cls-8" d="M503.767,61.837a4.426,4.426,0,0,0-3.225-1.5c-4.81,0-4.483,5.452-4.483,5.452v30.6c0,11.771-2.668,15.035-4.406,15.915a12.727,12.727,0,0,0,3.562.082c8.324-1.166,9.849-5.946,9.849-12.026,0,0,.411-28.432-.669-36A14.324,14.324,0,0,0,503.767,61.837Z"/>
        <path id="Shape-152" data-name="Shape" class="cls-9" d="M499.895,107.281s-.212,2.665-.378,3.42c-.105.462-.17.81-.252,1.162-.115.481-.142.721,0,.834s.462.142.695-.839a4.268,4.268,0,0,1-.871,1.806c-.512.572-1.267,1.157-1.056,1.443s.765,0,.765,0,.075.462.76.087c0,0,.087.387.784-.116,0,0,.282.318.922-.341a10.9,10.9,0,0,0,2.862-7.836Z"/>
        <path id="Shape-153" data-name="Shape" class="cls-1" d="M498.822,88.734l.722,21.575,4.226-.13s3.225-8.486,4.019-22.039"/>
        <circle id="Oval-13" data-name="Oval" class="cls-1" cx="4.507" cy="4.507" r="4.507" transform="translate(498.705 83.727) rotate(-1.03)"/>
        <path id="Shape-154" data-name="Shape" class="cls-1" d="M491.982,66.058,499,89.564l8.794-1.465s.137-2.179.142-4.522c0-9.849-1.383-17.255-4.06-22.505"/>
        <circle id="Oval-14" data-name="Oval" class="cls-1" cx="6.463" cy="6.463" r="6.463" transform="translate(491.592 57.475) rotate(-0.22)"/>
        <path id="Shape-155" data-name="Shape" class="cls-9" d="M483.355,32.795c-2.261-.091-4.919.469-6.227,2.646-.845,1.4-.78,3.959-.854,5.857-.14,3.427,1.226,7.018,3.353,8.882v.914a2.561,2.561,0,0,0,1.484,2.02,7.851,7.851,0,0,0,7.126,0,2.541,2.541,0,0,0,1.46-1.984V42.158c0-.108.015-.214.019-.32C489.935,37,487.071,32.944,483.355,32.795Z"/>
        <path id="Shape-156" data-name="Shape" class="cls-12" d="M489.053,44.621a14.63,14.63,0,0,1,.358-2c.334-1.523-.83-1.66-.83-1.66a1.1,1.1,0,0,0-1.166.993l-.142,2.424-.888.289s.265-1.749.265-2.246c0-2.768-.642-2.917-.642-2.917l-.34-2.165s-5.625.678-8.843-1.037a16.571,16.571,0,0,0-.515,3.793s-.671-4.594.394-7.413,2.826-4.207,5.809-4.183c0,0,8.974-.722,9.775,5.376,0,0,.889,6.838-2.591,12.613C489.7,46.478,489.057,44.592,489.053,44.621Z"/>
        <path id="Shape-157" data-name="Shape" class="cls-20" d="M482.607,51.478a4.809,4.809,0,0,1-2.98-1.292V51.1a2.561,2.561,0,0,0,1.484,2.02,7.851,7.851,0,0,0,7.126,0,2.541,2.541,0,0,0,1.46-1.984V42.165C489.4,46.9,486.241,51.625,482.607,51.478Z"/>
        <circle id="Oval-15" data-name="Oval" class="cls-5" cx="11.595" cy="11.595" r="11.595" transform="translate(472.618 0.202)"/>
        <path id="Shape-158" data-name="Shape" class="cls-1" d="M484.993,10.414l-.481,2.092,1.924,1.83,1.366,2.718a.7.7,0,1,1-1.121.844l-1.34-2.776-2.116-1.948-.541,2.071-1.715,2.513a.7.7,0,1,1-1.282-.57l1.777-2.516,1.172-5.133-1.369.609c0,.019-.481,1.561-.481,1.561a.6.6,0,0,1-1.143-.349l.635-2.073,3.168-1.33a1.409,1.409,0,0,1,.854-.108,1.251,1.251,0,0,1,.457.209l1.91,2.7,1.241.065a.6.6,0,1,1-.063,1.2l-1.568-.082c-.241-.012-.4-.2-.536-.409Zm-.15-2.992a1.2,1.2,0,1,1,1.2-1.2,1.2,1.2,0,0,1-1.2,1.2Z"/>
        <g id="Group-4" data-name="Group" class="cls-30" transform="translate(6.253 166.438)">
          <path id="Shape-159" data-name="Shape" class="cls-31" d="M6.41,3.738C-.661,7.848-1.91,13.851,3.639,17.077s15.874,2.5,22.945-1.609S34.9,5.352,29.343,2.126,13.481-.375,6.41,3.738Z"/>
        </g>
        <path id="Shape-160" data-name="Shape" class="cls-10" d="M15.011,180.485c1.532,1.532,3.391,2.164,4.151,1.4s.132-2.619-1.4-4.154-3.391-2.164-4.151-1.4c-.459.457-.426,1.66-.426,2.119A14.582,14.582,0,0,0,15.011,180.485Z"/>
        <path id="Shape-161" data-name="Shape" class="cls-9" d="M15.023,178.888c1,.962,2.2,1.33,2.674.832s.046-1.684-.962-2.631-2.2-1.33-2.675-.833S14.02,177.945,15.023,178.888Z"/>
        <path id="Shape-162" data-name="Shape" class="cls-10" d="M28.737,172.627c1.472,1.472,3.257,2.078,3.988,1.347s.128-2.514-1.344-3.988-3.257-2.076-3.988-1.347c-.44.44-.409,1.592-.409,2.035A12.929,12.929,0,0,0,28.737,172.627Z"/>
        <path id="Shape-163" data-name="Shape" class="cls-9" d="M28.749,171.093c.962.918,2.114,1.277,2.569.8s.043-1.606-.919-2.527-2.114-1.278-2.569-.8S27.785,170.176,28.749,171.093Z"/>
        <path id="Shape-164" data-name="Shape" class="cls-11" d="M13.183,151.752s-3.894-21.8-5.813-35.784L37.3,110.3c.142,6.8.38,19.756-.385,29.134-1.152,14.125-6.013,30.432-6.013,30.432-.106.513-.678.9-1.813.9-1.265,0-2.148-.425-2.148-1.024l.51-22.674-2.475-19.282s-1.2,14.373-2.09,22.048-5.428,27.419-5.428,27.419c0,.8-.587,1.458-1.958,1.458s-2.3-.594-2.311-1.39Z"/>
        <path id="Shape-165" data-name="Shape" class="cls-9" d="M38.206,106.545s-.269,2.734-.455,3.506c-.118.493-.19.83-.284,1.191-.127.5-.159.741,0,.861s.447.156.722-.849a4.382,4.382,0,0,1-.926,1.842c-.536.578-1.323,1.167-1.114,1.472s.787,0,.787,0,.067.5.782.106c0,0,.084.4.808-.106,0,0,.284.332.95-.332a11.217,11.217,0,0,0,3.086-8.021Z"/>
        <path id="Shape-166" data-name="Shape" class="cls-9" d="M44.015,90.271c.746,13.351-1.6,17.457-1.6,17.457l-4.257.115L36.532,91.216"/>
        <circle id="Oval-16" data-name="Oval" class="cls-9" cx="3.769" cy="3.769" r="3.769" transform="translate(36.487 86.721)"/>
        <path id="Shape-167" data-name="Shape" class="cls-1" d="M39.861,68.509c2.583,5.477,3.747,14.272,4.175,21.9l-7.494.794L29.377,72.738"/>
        <circle id="Oval-17" data-name="Oval" class="cls-1" cx="5.667" cy="5.667" r="5.667" transform="translate(29.11 65.354)"/>
        <path id="Shape-168" data-name="Shape" class="cls-1" d="M34.473,90.5a1.6,1.6,0,0,0,1.741,1.443l7.588-.685a1.6,1.6,0,0,0,1.443-1.739l-.164-1.806a1.6,1.6,0,0,0-1.739-1.443l-7.588.685A1.6,1.6,0,0,0,34.312,88.7Z"/>
        <path id="Shape-169" data-name="Shape" class="cls-1" d="M4.649,77.168c-1.109,7.774-.688,37-.688,37,0,6.237,1.571,11.151,10.126,12.348a14.321,14.321,0,0,0,4.81-.293c6.614-1.414,14.638-6.186,17.77-9.017,5.246-4.741,5.029-9.219,5.029-13.123v-28.5c0,.019,0-9.577-8.106-12.7-6.167-2.371-15.653-.2-20.615,2.6C12.988,65.488,5.8,69.074,4.649,77.168Z"/>
        <path id="Shape-170" data-name="Shape" class="cls-17" d="M5.267,74.565a4.557,4.557,0,0,1,3.338-1.544c4.947,0,4.611,5.606,4.611,5.606v31.455c0,12.1,2.744,15.455,4.531,16.355a13.091,13.091,0,0,1-3.661.084c-8.555-1.2-10.126-6.111-10.126-12.348,0,0-.421-29.225.688-37A14.845,14.845,0,0,1,5.267,74.565Z"/>
        <path id="Shape-171" data-name="Shape" class="cls-9" d="M26.149,47.086c2.083-.084,4.527.431,5.732,2.439.774,1.292.722,3.644.786,5.388a10.8,10.8,0,0,1-3.088,8.178v.842a2.367,2.367,0,0,1-1.366,1.862,7.225,7.225,0,0,1-6.557,0,2.338,2.338,0,0,1-1.344-1.828V55.709c0-.1-.014-.2-.017-.3C20.1,50.951,22.729,47.223,26.149,47.086Z"/>
        <path id="Shape-172" data-name="Shape" class="cls-20" d="M26.837,64.281a4.441,4.441,0,0,0,2.744-1.191v.842a2.367,2.367,0,0,1-1.366,1.862,7.225,7.225,0,0,1-6.557,0,2.338,2.338,0,0,1-1.344-1.828V55.709C20.588,60.069,23.491,64.42,26.837,64.281Z"/>
        <path id="Shape-173" data-name="Shape" class="cls-12" d="M17.409,49.251a8.771,8.771,0,0,1,4.4-5.787c3.052-1.508,7.9-1.268,8.928-.962,1.409.409,1.712,1.337,1.395,2.035,0,0,2.646.7,1.739,2.549,1.042,2.177.979,4.406-1.229,6.86-.046-1.571-.118-3.35-.755-4.414a4.531,4.531,0,0,0-1.79-1.684,6.659,6.659,0,0,0-7.107,2.886l-.44,4.762a1.14,1.14,0,0,0-2.251.327v3.454a9.125,9.125,0,0,1-1.6-2.405A12.684,12.684,0,0,1,17.409,49.251Z"/>
        <path id="Shape-174" data-name="Shape" class="cls-9" d="M9.243,121.276s.219,2.74.39,3.517c.108.5.178.832.262,1.2.118.5.144.744-.022.861s-.45.15-.722-.863a4.388,4.388,0,0,0,.895,1.859c.527.587,1.3,1.191,1.087,1.491s-.786-.014-.786-.014-.077.5-.782.091c0,0-.091.4-.806-.12,0,0-.291.327-.943-.349a11.234,11.234,0,0,1-2.942-8.076Z"/>
        <path id="Shape-175" data-name="Shape" class="cls-9" d="M10.342,102.218,9.592,124.4l-4.344-.135s-3.31-8.726-4.125-22.657"/>
        <circle id="Oval-18" data-name="Oval" class="cls-9" cx="4.632" cy="4.632" r="4.632" transform="translate(1.04 106.174) rotate(-88.97)"/>
        <path id="Shape-176" data-name="Shape" class="cls-1" d="M17.38,78.909l-7.216,24.139-9.039-1.509S.984,99.3.981,96.893c0-10.123,1.443-17.738,4.173-23.133"/>
        <circle id="Oval-19" data-name="Oval" class="cls-1" cx="6.643" cy="6.643" r="6.643" transform="translate(4.441 83.338) rotate(-89.78)"/>
        <path id="Shape-177" data-name="Shape" class="cls-1" d="M.253,101.859a1.6,1.6,0,0,0,1.393,1.787l7.564.941A1.6,1.6,0,0,0,11,103.194l.224-1.8a1.6,1.6,0,0,0-1.393-1.787l-7.567-.943a1.6,1.6,0,0,0-1.78,1.393Z"/>
        <circle id="Oval-20" data-name="Oval" class="cls-5" cx="11.595" cy="11.595" r="11.595" transform="translate(14.672 12.228)"/>
        <path id="Shape-178" data-name="Shape" class="cls-1" d="M27.046,22.44l-.481,2.093,1.924,1.83,1.366,2.718a.7.7,0,1,1-1.121.844L27.4,27.15,25.278,25.2l-.541,2.071-1.722,2.514a.7.7,0,1,1-1.282-.57L23.511,26.7l1.171-5.133-1.369.608c0,.019-.481,1.561-.481,1.561a.6.6,0,0,1-1.142-.349l.635-2.073,3.168-1.33a1.41,1.41,0,0,1,.854-.108,1.247,1.247,0,0,1,.457.209l1.91,2.7,1.241.065a.6.6,0,0,1-.062,1.2l-1.568-.082c-.241-.012-.4-.2-.536-.409ZM26.9,19.448a1.2,1.2,0,1,1,1.2-1.2,1.2,1.2,0,0,1-1.2,1.2Z"/>
        <path id="Shape-179" data-name="Shape" class="cls-8" d="M308.423,174.505c-6.991,4.065-8.223,10-2.739,13.188s15.691,2.473,22.681-1.592,8.223-10,2.739-13.188S315.413,170.441,308.423,174.505Z"/>
        <path id="Shape-180" data-name="Shape" class="cls-16" d="M310.908,184.694c1.515,1.515,3.35,2.138,4.1,1.385s.133-2.588-1.383-4.1-3.35-2.139-4.1-1.388c-.455.452-.421,1.64-.421,2.1A14.058,14.058,0,0,0,310.908,184.694Z"/>
        <path id="Shape-181" data-name="Shape" class="cls-9" d="M310.92,183.118c.993.948,2.165,1.316,2.646.823s.045-1.655-.948-2.6-2.165-1.313-2.646-.823S309.932,182.173,310.92,183.118Z"/>
        <path id="Shape-182" data-name="Shape" class="cls-16" d="M324.478,176.927c1.443,1.456,3.218,2.052,3.942,1.331s.125-2.487-1.328-3.943-3.218-2.054-3.942-1.332c-.435.435-.4,1.575-.4,2.013A13.5,13.5,0,0,0,324.478,176.927Z"/>
        <path id="Shape-183" data-name="Shape" class="cls-9" d="M324.49,175.412c.962.909,2.09,1.263,2.54.792s.043-1.59-.909-2.5-2.09-1.263-2.54-.789S323.538,174.505,324.49,175.412Z"/>
        <path id="Shape-184" data-name="Shape" class="cls-5" d="M309.1,156.3s-5.465-21.925-7.362-35.746l33.229-5.909c.14,6.72-1.649,20.2-2.4,29.473-1.137,13.964-5.948,30.084-5.948,30.084-.106.505-.668.892-1.792.892-1.253,0-2.123-.423-2.123-1.012l.505-22.412L320.76,132.6s-1.186,14.207-2.066,21.8-5.366,27.1-5.366,27.1c0,.793-.58,1.443-1.924,1.443s-2.276-.587-2.285-1.374Z"/>
        <path id="Shape-185" data-name="Shape" class="cls-1" d="M335.475,74.015c2.551,5.414,3.7,14.109,4.127,21.647l-7.408.784-7.083-18.258"/>
        <path id="Shape-186" data-name="Shape" class="cls-9" d="M333.839,111.605s-.265,2.7-.45,3.468c-.118.481-.187.821-.281,1.177-.125.481-.159.721,0,.849s.442.154.721-.84a4.327,4.327,0,0,1-.916,1.821c-.531.572-1.308,1.152-1.1,1.443s.777,0,.777,0,.068.481.772.1c0,0,.085.4.8-.1,0,0,.281.33.938-.329a11.111,11.111,0,0,0,3.05-7.938Z"/>
        <path id="Shape-187" data-name="Shape" class="cls-1" d="M339.59,95.517c.738,13.2-1.313,17.25-1.313,17.25l-4.476.12L332.194,96.45"/>
        <circle id="Oval-21" data-name="Oval" class="cls-1" cx="3.726" cy="3.726" r="3.726" transform="translate(332.138 92.01)"/>
        <circle id="Oval-22" data-name="Oval" class="cls-1" cx="5.602" cy="5.602" r="5.602" transform="translate(324.846 70.888)"/>
        <path id="Shape-188" data-name="Shape" class="cls-1" d="M332.319,122.145a45.6,45.6,0,0,1-17.558,8.913,14.451,14.451,0,0,1-4.757.289C301.547,130.161,300,125.305,300,119.141l.026-31.681a18.866,18.866,0,0,1,8.9-16.447c4.9-2.766,14.282-4.916,20.377-2.571,8.012,3.083,8.009,12.569,8.012,12.55A28.853,28.853,0,0,1,335.8,92.878C335.782,92.888,340.752,114.378,332.319,122.145Z"/>
        <path id="Shape-189" data-name="Shape" class="cls-8" d="M301.626,79.462a5.881,5.881,0,0,1,4.7-1.3c3.625.452,2.8,4.69,2.8,4.69s-3.711,33.483,4.445,40.051c5.753,4.635,13.368,2.223,17.354.4-3.673,2.809-10.47,6.542-16.18,7.763a14.429,14.429,0,0,1-4.758.289c-8.456-1.186-10.007-6.042-10.007-12.206l.026-31.681A20.122,20.122,0,0,1,301.626,79.462Z"/>
        <path id="Shape-190" data-name="Shape" class="cls-5" d="M332.771,81.322v1.015l-6.241,1.489V82.808Z"/>
        <path id="Shape-191" data-name="Shape" class="cls-9" d="M305.217,126.169s.217,2.7.388,3.475c.108.481.175.825.259,1.181.118.481.145.734-.021.849s-.445.147-.71-.851a4.343,4.343,0,0,0,.883,1.837c.519.58,1.287,1.176,1.075,1.475s-.777-.015-.777-.015-.077.481-.772.091c0,0-.091.4-.8-.117,0,0-.286.322-.931-.347a11.1,11.1,0,0,1-2.908-7.983Z"/>
        <path id="Shape-192" data-name="Shape" class="cls-1" d="M306.3,107.329l-.741,21.923-4.293-.132s-3.279-8.625-4.089-22.395"/>
        <circle id="Oval-23" data-name="Oval" class="cls-1" cx="4.578" cy="4.578" r="4.578" transform="translate(297.744 111.928) rotate(-88.854)"/>
        <path id="Shape-193" data-name="Shape" class="cls-1" d="M313.251,84.287l-7.134,23.862-8.935-1.491s-.142-2.213-.145-4.592c0-10.008,1.422-17.534,4.125-22.866"/>
        <circle id="Oval-24" data-name="Oval" class="cls-1" cx="6.566" cy="6.566" r="6.566" transform="translate(300.47 88.665) rotate(-89.78)"/>
        <path id="Shape-194" data-name="Shape" class="cls-5" d="M322.708,72.615l-1.585,1,1.036,2.47-2.874,25.083,3.5,4.226,3.565-8.305-3.086-21.663.676-2.557Z"/>
        <path id="Shape-195" data-name="Shape" class="cls-14" d="M325.878,68.911l-.149,5.291-3.019-1.6-2.941,3.156-4.241-5.051s-.911-1.169-.481-2.133a2.993,2.993,0,0,1,.994-1s1.392,2.672,6.554,4.19c0,0,2.229-1.626,2.5-3.127,0,0,.226-.2.51-.512A1.424,1.424,0,0,1,325.878,68.911Z"/>
        <path id="Shape-196" data-name="Shape" class="cls-9" d="M321.861,52.839c2.059-.082,4.474.426,5.667,2.405.767,1.277.709,3.608.777,5.328a10.653,10.653,0,0,1-3.052,8.079v.835a2.353,2.353,0,0,1-1.352,1.84,7.144,7.144,0,0,1-6.482,0,2.306,2.306,0,0,1-1.328-1.806V63.764c0-.1-.762-3.069-.767-3.168A7.259,7.259,0,0,1,321.861,52.839Z"/>
        <path id="Shape-197" data-name="Shape" class="cls-19" d="M322.535,69.834a4.383,4.383,0,0,0,2.71-1.176v.827a2.351,2.351,0,0,1-1.351,1.84,7.144,7.144,0,0,1-6.482,0,2.3,2.3,0,0,1-1.328-1.806V61.356C316.365,65.674,319.235,69.967,322.535,69.834Z"/>
        <path id="Shape-198" data-name="Shape" class="cls-6" d="M316.074,61.5l.575,2.913-.575,1.823a14.6,14.6,0,0,1-1.233-2.865c-1.533-3.3-1.169-5.835-.931-8.418.1-1.075.425-5.445,3.658-5.708,0,0,1.705-1.746,6.472.091,2.761,1.065,4.361-.084,4.361-.084a3.093,3.093,0,0,1-.2,1.89s2.588,2.246.08,8.457c-.046-1.551,0-2.764-.628-3.815-.445-.743-1.544-.924-2.335-1.029a4.41,4.41,0,0,0-1.383.3,7.453,7.453,0,0,0-1.732-.329c-3.509.277-3.464,1.715-3.464,1.715l-.151,1.624v5.561a3.534,3.534,0,0,0,2.865,3.273,3.09,3.09,0,0,0,2.222-.981h.82s.683,1.063,1.33.738a3.928,3.928,0,0,0,2.1-2.646c-.147.758-1.2,5.431-4.592,5.837-4.156.5-5.741-2.059-5.741-4.95V59.788a.844.844,0,0,0-.933-1C315.56,58.787,315.815,60.293,316.074,61.5Z"/>
        <path id="Shape-199" data-name="Shape" class="cls-6" d="M322.708,63.5h2.759a2.465,2.465,0,0,1,.781,1.412h-4.329A2.463,2.463,0,0,1,322.708,63.5Z"/>
        <g id="Group-5" data-name="Group" class="cls-30" transform="translate(346.105 180.87)">
          <path id="Shape-200" data-name="Shape" d="M6.617,3.957C-.671,8.194-1.955,14.381,3.762,17.7s16.355,2.578,23.645-1.66S35.979,5.621,30.262,2.3,13.9-.279,6.617,3.957Z"/>
        </g>
        <path id="Shape-201" data-name="Shape" class="cls-10" d="M370,184.626c-1.6-1.568-3.774-1.9-4.57-1.118s-.132,2.7,1.443,4.291a9.6,9.6,0,0,0,2.165,1.789,1.816,1.816,0,0,0,2.124-.329c.452-.481.392-2.29.392-2.766A5.9,5.9,0,0,0,370,184.626Z"/>
        <ellipse id="Oval-25" data-name="Oval" class="cls-9" cx="1.412" cy="2.715" rx="1.412" ry="2.715" transform="matrix(0.66, -0.751, 0.751, 0.66, 365.996, 185.036)"/>
        <path id="Shape-202" data-name="Shape" class="cls-10" d="M356.775,192.068c-1.6-1.568-3.774-1.9-4.57-1.118s-.132,2.7,1.443,4.291a9.6,9.6,0,0,0,2.165,1.789,1.816,1.816,0,0,0,2.124-.33c.452-.481.392-2.289.392-2.765A5.994,5.994,0,0,0,356.775,192.068Z"/>
        <ellipse id="Oval-26" data-name="Oval" class="cls-9" cx="1.412" cy="2.715" rx="1.412" ry="2.715" transform="matrix(0.66, -0.751, 0.751, 0.66, 352.773, 192.437)"/>
        <path id="Shape-203" data-name="Shape" class="cls-9" d="M369.376,187.5c-1.85-.81-1.925-1.782-1.973-2.191,0,0-2.3-15.174-3.451-25.225a146.239,146.239,0,0,1-.806-15.894l-3.526,21.887L357.987,194.3c0,.029-.18,1.183-1.621.681-1.337-.467-1.955-1.032-2.232-2.117-.185-.921-4.168-20.256-5.15-28.511-1.005-8.452-3.463-42.165-2.2-44.813l32.611,1.111-6.388,40.458-1.811,25.62s-.111.721-.592.858A2.041,2.041,0,0,1,369.376,187.5Z"/>
        <path id="Shape-204" data-name="Shape" class="cls-11" d="M358.151,161.558a10.773,10.773,0,0,1-4.12.241c-4.226-.592-8.659-5.178-8.659-5.178v-5.374c0-5.717.022-27.419.022-27.419.144-1.491.324-2.9.567-4.238a13.866,13.866,0,0,1,5.672-9.041,11.186,11.186,0,0,1,1.457-.962c4.245-2.4,12.365-4.257,17.642-2.225,6.937,2.67,6.934,10.881,6.937,10.865V149.4a70.673,70.673,0,0,1-8.507,6.494A66.271,66.271,0,0,1,358.151,161.558Z"/>
        <path id="Shape-205" data-name="Shape" class="cls-1" d="M381.009,83.825c2.663,5.645,3.863,14.708,4.3,22.573l-7.723.82L370.2,88.186"/>
        <path id="Shape-206" data-name="Shape" class="cls-9" d="M379.3,123.015s-.277,2.817-.469,3.608c-.123.508-.2.856-.293,1.227-.133.51-.164.762,0,.887s.461.161.755-.875a4.518,4.518,0,0,1-.962,1.9c-.554.6-1.364,1.2-1.148,1.518s.811,0,.811,0,.07.51.8.108c0,0,.087.412.832-.108,0,0,.294.342.979-.341a11.582,11.582,0,0,0,3.18-8.267Z"/>
        <path id="Shape-207" data-name="Shape" class="cls-1" d="M385.31,106.242c.77,13.757-1.371,17.983-1.371,17.983l-4.666.125-1.684-17.134"/>
        <circle id="Oval-27" data-name="Oval" class="cls-1" cx="3.884" cy="3.884" r="3.884" transform="translate(377.532 102.586)"/>
        <circle id="Oval-28" data-name="Oval" class="cls-1" cx="5.84" cy="5.84" r="5.84" transform="translate(369.929 80.566)"/>
        <path id="Shape-208" data-name="Shape" class="cls-1" d="M344.181,91.57c-1.142,8.012-.709,38.129-.709,38.129,0,6.427,1.618,11.49,10.433,12.726a14.878,14.878,0,0,0,4.96-.3c6.816-1.458,15.085-6.377,18.313-9.294,5.4-4.885,5.183-9.5,5.183-13.522V89.93c0,.019,0-9.861-8.353-13.084-6.355-2.446-16.132-.2-21.243,2.679C352.763,79.527,345.369,83.222,344.181,91.57Z"/>
        <path id="Shape-209" data-name="Shape" class="cls-17" d="M344.816,88.881a4.692,4.692,0,0,1,3.44-1.59c5.1,0,4.75,5.772,4.75,5.772v32.412c0,12.468,2.826,15.927,4.668,16.86a13.459,13.459,0,0,1-3.771.087c-8.815-1.237-10.434-6.3-10.434-12.726,0,0-.433-30.118.71-38.129A15.3,15.3,0,0,1,344.816,88.881Z"/>
        <path id="Shape-210" data-name="Shape" class="cls-1" d="M358.119,91.928l-4.95,25.625-9.327-1.727s.058-1.953.113-4.432c.241-10.542-.685-18.162,1.215-23.653.9-2.614,14.378-1.5,12.947,4.187"/>
        <path id="Shape-211" data-name="Shape" class="cls-9" d="M346.9,136.941s-1.848,4.994-1.814,6.013c.027.857.224,1.369-.284,1.624-.68.341-.962-.171-.962-.171a.765.765,0,0,1-1.169-.356s-.671.445-.986-.632c0,0-.721.594-.911-1.444-.227-2.4,1.652-6.13,1.669-6.176Z"/>
        <path id="Shape-212" data-name="Shape" class="cls-9" d="M344.679,144.64a1.648,1.648,0,0,0,.938-1.063c.272-.837-.171-1.6-.962-1.587C344.662,141.99,343.135,144.9,344.679,144.64Z"/>
        <path id="Shape-213" data-name="Shape" class="cls-1" d="M343.857,115.716l-2.127,22.411,4.517,2.131a148.625,148.625,0,0,0,7.045-23.157"/>
        <circle id="Oval-29" data-name="Oval" class="cls-1" cx="4.772" cy="4.772" r="4.772" transform="matrix(0.487, -0.873, 0.873, 0.487, 342.121, 118.053)"/>
        <circle id="Oval-30" data-name="Oval" class="cls-1" cx="6.886" cy="6.886" r="6.886" transform="translate(344.468 97.589) rotate(-89.78)"/>
        <path id="Shape-214" data-name="Shape" class="cls-9" d="M355.209,69.9c.048,4.827,3.091,8.712,6.792,8.673s6.665-3.983,6.617-8.81c-.019-1.89.12-4.428-.678-5.849-1.239-2.21-3.863-2.845-6.117-2.821C358.131,61.132,355.161,65.077,355.209,69.9Z"/>
        <path id="Shape-215" data-name="Shape" class="cls-13" d="M355.209,69.9c.048,4.827,3.091,8.712,6.792,8.673s6.665-3.983,6.617-8.81c-.019-1.89.12-4.428-.678-5.849-1.239-2.21-3.863-2.845-6.117-2.821C358.131,61.132,355.161,65.077,355.209,69.9Z"/>
        <path id="Shape-216" data-name="Shape" class="cls-9" d="M357.958,73.6l9.14.014v3.841a2.324,2.324,0,0,1-1.347,1.835,7.119,7.119,0,0,1-6.463,0,2.3,2.3,0,0,1-1.323-1.8v-.031Z"/>
        <path id="Shape-217" data-name="Shape" class="cls-12" d="M373.707,68.129c-1.683-2.35-1.253-7.521-3.386-10.162s-6.182-2.016-6.182-2.016c-2.349-1.546-6.106,1.219-9.233,4.957-3.848,4.611,1.83,6.609,1.83,6.609s2.129,4.522.027,7.117c0,0-3.074,3.35-1.7,7.093.746,2.03,2.448,3.213,3.182,5.241.618,1.71.14,4.974-2.886,5.614,0,0,3.066,3.276,11.489,2.436,4.486-.447,9.958-3.047,8.265-8.954C372.841,78.115,379.672,76.4,373.707,68.129Z"/>
      </g>
      <g id="Xmas-Tree" transform="translate(100 269)">
        <g id="_Group_2-2" data-name="_Group_2" transform="translate(45.559 4.467)">
          <g id="_Group_3-2" data-name="_Group_3" transform="translate(4.253)">
            <path id="_Path_2-2" data-name="_Path_" class="cls-32" d="M47.666,149.686,5.375,170.276l42.291,20.589,42.286-20.589Z"/>
            <g id="_Group_4-2" data-name="_Group_4" transform="translate(37.746 72.124)">
              <path id="_Path_2-3" data-name="_Path_2" class="cls-33" d="M.4,4.9V97.5l9.506,4.612V9.545Z"/>
              <path id="_Path_3-2" data-name="_Path_3" class="cls-34" d="M9.91,9.545v92.571l9.522-4.633L19.42,4.917Z"/>
              <path id="_Path_4-2" data-name="_Path_4" class="cls-35" d="M9.91.274.4,4.9,9.91,9.545,19.42,4.917Z"/>
              <path id="_Path_5-2" data-name="_Path_5" class="cls-36" d="M19.42,27.813,10.16,14.283.4,28.528v50.1L9.91,83.048l9.516-8.018Z"/>
            </g>
            <path id="_Path_6-2" data-name="_Path_6" class="cls-37" d="M47.666,150.813l47.358-23.064L47.666,58.568Z"/>
            <path id="_Path_7" class="cls-1" d="M49.085,99.773c-.936,3.3-1.446,6.7-.207,10a2.512,2.512,0,0,0,1.653,1.648c2.222.816,6.241.21,8.921.352,5.114.269,9.537,1.58,12.169,3.454,2.467,1.753,2.355,3.774,4.3,5.643a15.179,15.179,0,0,0,11.122,4.449,3.892,3.892,0,0,0,1.627-.4l3.307-1.622L62.3,79.952Z"/>
            <path id="_Path_8" class="cls-38" d="M62.408,80.231,55.114,91.155c-.718,2.532-1.111,5.143-.16,7.67a1.931,1.931,0,0,0,1.271,1.263c1.7.627,4.785.163,6.842.269,3.929.205,7.315,1.21,9.335,2.632,1.893,1.348,1.808,2.9,3.3,4.327a11.653,11.653,0,0,0,7.592,3.391Z"/>
            <path id="_Path_9" class="cls-39" d="M.3,127.749l47.363,23.064V58.568Z"/>
            <path id="_Path_10" class="cls-40" d="M47.666,58.568l-33,48.2,32.993,17.978L75.566,99.326Z"/>
            <path id="_Path_11" class="cls-41" d="M47.666,112.4,91.993,90.824,47.666,26.07Z"/>
            <path id="_Path_12" class="cls-1" d="M49.085,67.3c-.936,3.3-1.446,6.7-.207,10a2.513,2.513,0,0,0,1.653,1.648c2.222.816,6.241.211,8.921.353,5.114.268,9.537,1.579,12.169,3.454,2.467,1.753,2.355,3.775,4.3,5.644A15.231,15.231,0,0,0,87.9,92.819l4.088-1.99L62.318,47.475Z"/>
            <path id="_Path_13" class="cls-38" d="M62.408,47.607,55.114,58.531c-.718,2.532-1.111,5.144-.16,7.67a1.931,1.931,0,0,0,1.271,1.263c1.7.627,4.785.163,6.842.269,3.929.205,7.315,1.211,9.335,2.632,1.893,1.348,1.808,2.9,3.3,4.327a11.652,11.652,0,0,0,7.592,3.39Z"/>
            <path id="_Path_14" class="cls-42" d="M3.339,90.824,47.666,112.4V26.07Z"/>
            <path id="_Path_15" class="cls-43" d="M47.666,26.07,23.238,61.753,47.655,72.4,67.475,55.009Z"/>
            <path id="_Path_16" class="cls-44" d="M47.666,64.654,74.024,51.819,47.666,13.309Z"/>
            <path id="_Path_17" class="cls-45" d="M21.3,51.819,47.666,64.654V13.309Z"/>
            <path id="_Path_18" class="cls-1" d="M47.666,13.309,25.827,45.2c2.174.158,4.864-.137,6.837-.032,5.114.268,9.537,1.579,12.169,3.453,2.467,1.753,2.355,3.775,4.3,5.644a15.172,15.172,0,0,0,10.718,4.454l14.179-6.9Z"/>
            <path id="_Path_19" class="cls-46" d="M32.669,45.17c5.114.268,9.537,1.579,12.169,3.453a9.225,9.225,0,0,1,2.828,3.685V13.351L25.827,45.2C28,45.359,30.7,45.064,32.669,45.17Z"/>
            <g id="_Group_5-2" data-name="_Group_5" transform="translate(35.619)">
              <g id="_Group_6-2" data-name="_Group_6">
                <g id="_Group_7" transform="translate(3.19 13.688)">
                  <path id="_Path_20" class="cls-47" d="M6.417,9.7.165,6.1.42.121l6.257,3.6Z"/>
                </g>
                <g id="_Group_8" transform="translate(5.316)">
                  <path id="_Path_21" class="cls-48" d="M6.252,10.4,0,6.807,2.77.321l6.252,3.6Z"/>
                </g>
                <g id="_Group_9" transform="translate(0 6.317)">
                  <path id="_Path_22" class="cls-49" d="M6.629,8.413.372,4.817,5.316.49l6.252,3.6Z"/>
                </g>
                <g id="_Group_10" transform="translate(0 11.055)">
                  <path id="_Path_23" class="cls-48" d="M9.867,6.354,3.61,2.753.372.079l6.257,3.6Z"/>
                </g>
                <g id="_Group_11" transform="translate(6.38 3.685)">
                  <path id="_Path_24" class="cls-50" d="M7.959.237l2.8,3.3L15.7,2.211,12.493,8.576l.287,5.659L8,14.872,3.227,19.7l.26-5.975L.25,11.045,5.189,6.718Z"/>
                </g>
                <path id="_Path_25" class="cls-49" d="M14.338,3.922l2.8,3.3L22.084,5.9,15.832,2.3l-2.945.79Z"/>
              </g>
            </g>
          </g>
          <g id="_Group_12" transform="translate(82.403 163.727)">
            <g id="_Group_13" transform="translate(2.127 9.476)">
              <path id="_Path_26" class="cls-51" d="M2.43,1.121l-1.01.195L.505,2.8,3.817,3.9l.165-2.269Z"/>
              <path id="_Path_27" class="cls-52" d="M3.982,1.632,3.817,3.9l2.27-1.979-.824-.484Z"/>
              <path id="_Path_28" class="cls-53" d="M3.02.469l-.59.653,1.552.511,1.281-.195Z"/>
              <path id="_Path_29" class="cls-54" d="M1.419,1.316l1.01-.195L3.02.469Z"/>
            </g>
            <g id="_Group_14">
              <path id="_Path_30" class="cls-51" d="M2.887.432l-.9.374-.941.321L.3,1.669.122,1.89,3.769,3.111,3.238,1.5Z"/>
              <path id="_Path_31" class="cls-52" d="M3.174,1.3l.6,1.816L5.433,1.669Z"/>
              <path id="_Path_32" class="cls-55" d="M2.887.432l.287.863,2.259.374Z"/>
              <path id="_Path_33" class="cls-54" d="M.3,1.669l1.334-.263-.59-.279Z"/>
              <path id="_Path_34" class="cls-56" d="M2.887.432l-1.845.695.59.279L3.174,1.3Z"/>
            </g>
            <g id="_Group_15" transform="translate(7.974 11.582)">
              <path id="_Path_35" class="cls-55" d="M2.8,1.19,2.749.948,1.7.295.984.605l-.452.711-.005.347.718.242.877-.174Z"/>
              <path id="_Path_36" class="cls-52" d="M2.749.948,2.068.526l-.6.232.649.974L2.8,1.19Z"/>
              <path id="_Path_37" class="cls-51" d="M.532,1.316l-.005.347.718.242L1.473.758Z"/>
              <path id="_Path_38" class="cls-54" d="M.532,1.316,1.473.758.984.605Z"/>
            </g>
          </g>
          <g id="_Group_16" transform="translate(0 152.671)">
            <g id="_Group_17" transform="translate(0 21.585)">
              <path id="_Path_39" class="cls-51" d="M2.19.753l-1.01.2L.266,2.427,3.578,3.532l.165-2.264Z"/>
              <path id="_Path_40" class="cls-52" d="M3.743,1.269,3.578,3.532l2.27-1.974-.824-.484Z"/>
              <path id="_Path_41" class="cls-53" d="M2.78.105,2.19.753l1.552.516,1.281-.195Z"/>
              <path id="_Path_42" class="cls-54" d="M1.18.953l1.01-.2L2.78.105Z"/>
            </g>
            <g id="_Group_18" transform="translate(29.24)">
              <path id="_Path_43" class="cls-51" d="M3.243.474l-.9.374L1.4,1.163l-.75.542-.17.226L4.131,3.153,3.6,1.537Z"/>
              <path id="_Path_44" class="cls-52" d="M3.53,1.332l.6,1.822L5.789,1.711Z"/>
              <path id="_Path_45" class="cls-55" d="M3.243.474l.287.858,2.259.379Z"/>
              <path id="_Path_46" class="cls-54" d="M.654,1.706l1.334-.263L1.4,1.163Z"/>
              <path id="_Path_47" class="cls-56" d="M3.243.474,1.4,1.163l.585.279L3.53,1.332Z"/>
            </g>
            <g id="_Group_19" transform="translate(2.658 27.902)">
              <path id="_Path_48" class="cls-55" d="M2.408,1.253l-.053-.242L1.313.358.59.669l-.452.711-.005.347.718.242L1.733,1.8Z"/>
              <path id="_Path_49" class="cls-52" d="M2.355,1.011,1.68.59l-.6.226.649.979.675-.542Z"/>
              <path id="_Path_50" class="cls-51" d="M.138,1.379l-.005.347.718.242L1.085.816Z"/>
              <path id="_Path_51" class="cls-54" d="M.138,1.379,1.085.816.59.669Z"/>
            </g>
          </g>
          <g id="_Group_20" transform="translate(91.972 170.044)">
            <path id="_Path_52" class="cls-51" d="M8.942.026l-2.85.99-2.956.805L.734,3.359l-.579.653,11.01,4.433L9.825,3.38Z"/>
            <path id="_Path_53" class="cls-52" d="M9.654,2.732l1.51,5.712L16.555,4.3Z"/>
            <path id="_Path_54" class="cls-55" d="M8.942.026l.712,2.706,6.9,1.569Z"/>
            <path id="_Path_55" class="cls-54" d="M.734,3.359,4.9,2.79l-1.76-.969Z"/>
            <path id="_Path_56" class="cls-56" d="M8.942.026l-5.805,1.8L4.9,2.79l4.758-.058Z"/>
          </g>
          <ellipse id="_Path_57" class="cls-57" cx="9.468" cy="4.828" rx="9.468" ry="4.828" transform="translate(58.517 172.781)"/>
          <ellipse id="_Path_58" class="cls-57" cx="9.468" cy="4.828" rx="9.468" ry="4.828" transform="translate(42.52 181.604)"/>
          <g id="_Group_21" transform="translate(55.29 156.883)">
            <g id="_Group_22">
              <g id="_Group_23">
                <ellipse id="_Path_59" class="cls-58" cx="9.495" cy="9.402" rx="9.495" ry="9.402" transform="translate(0.182 18.195) rotate(-69.83)"/>
                <ellipse id="_Path_60" class="cls-59" cx="7.033" cy="9.402" rx="7.033" ry="9.402" transform="translate(1.03 15.884) rotate(-69.83)"/>
                <path id="_Path_61" class="cls-60" d="M15.561,3.711a9.394,9.394,0,0,1,6.045,10.629c-1.93,2.685-6.38,3.622-10.675,2.053-4.46-1.622-7.267-5.37-6.757-8.744A9.547,9.547,0,0,1,15.561,3.711Z"/>
              </g>
              <g id="_Group_24" transform="translate(20.202 11.582)">
                <g id="_Group_25">
                  <path id="_Path_62" class="cls-2" d="M3.19.621a.086.086,0,0,0-.069.026.374.374,0,0,0-.074.095,1.085,1.085,0,0,0-.069.153,2.061,2.061,0,0,0-.064.2L.787.753A.187.187,0,0,1,.824.616V.395h.239L3.078.721h.1Z"/>
                  <path id="_Path_63" class="cls-61" d="M2.759,4.8a.085.085,0,0,0,.058.053L.691,4.506a.085.085,0,0,1-.058-.053L.223,3.706l2.127.342Z"/>
                  <g id="_Group_26" transform="translate(0 0.526)">
                    <path id="_Path_64" class="cls-62" d="M.271,2.185l2.111.342L2.887.584.771.242Z"/>
                  </g>
                  <path id="_Path_65" class="cls-63" d="M2.323,3.353a2.607,2.607,0,0,0,0,.284,1.566,1.566,0,0,0,0,.242.491.491,0,0,0,.048.168L.245,3.706A.491.491,0,0,1,.2,3.538V2.716l2.127.342A2.82,2.82,0,0,0,2.323,3.353Z"/>
                  <path id="_Path_66" class="cls-64" d="M3.222.674l.409.748a1.825,1.825,0,0,1-.032.995L3.1,4.359c-.1.395-.255.59-.335.437l-.409-.748a1.82,1.82,0,0,1,.032-.995l.5-1.943C2.988.716,3.137.526,3.222.674Z"/>
                </g>
              </g>
            </g>
          </g>
          <g id="_Group_27" transform="translate(37.746 164.78)">
            <g id="_Group_28">
              <g id="_Group_29">
                <ellipse id="_Path_67" class="cls-65" cx="9.936" cy="9.839" rx="9.936" ry="9.839" transform="matrix(0.841, -0.541, 0.541, 0.841, 0.568, 10.781)"/>
                <ellipse id="_Path_68" class="cls-65" cx="7.358" cy="9.839" rx="7.358" ry="9.839" transform="matrix(0.841, -0.541, 0.541, 0.841, 2.736, 9.385)"/>
                <path id="_Path_69" class="cls-5" d="M22.594,8.36A9.99,9.99,0,0,0,10.255,4.675c-2.328,2.569-2.281,7.26.319,11.266,2.69,4.138,7.2,6.117,10.558,4.833A9.769,9.769,0,0,0,22.594,8.36Z"/>
              </g>
              <g id="_Group_30" transform="translate(7.443 2.106)">
                <g id="_Group_31">
                  <path id="_Path_70" class="cls-2" d="M4.615.3a.089.089,0,0,1,0,.074.391.391,0,0,1-.08.095A1.147,1.147,0,0,1,4.4.574L4.205.684,5.04,2.743l.128-.068.064-.037L5.29,2.6l.043-.032h.032V2.516L4.567.558,4.529.463Z"/>
                  <path id="_Path_71" class="cls-61" d="M.4,1.664A.09.09,0,0,1,.34,1.616L1.17,3.685a.09.09,0,0,0,.064.047l.867.242L1.265,1.916Z"/>
                  <g id="_Group_32" transform="translate(2.127 0.526)">
                    <path id="_Path_72" class="cls-62" d="M.994,3.18.159,1.121,2.047.168l.835,2.058Z"/>
                  </g>
                  <path id="_Path_73" class="cls-63" d="M1.994,1.774a2.809,2.809,0,0,1-.287.089,1.672,1.672,0,0,1-.25.047.537.537,0,0,1-.181,0l.835,2.058a.537.537,0,0,0,.181,0h.718l.069-.032h.043L2.286,1.879A3.033,3.033,0,0,1,1.994,1.774Z"/>
                  <path id="_Path_74" class="cls-64" d="M4.545.253,3.679.011A1.961,1.961,0,0,0,2.663.268L.776,1.221c-.383.195-.532.39-.377.442l.867.242a1.956,1.956,0,0,0,1.021-.258L4.173.695C4.556.526,4.726.305,4.545.253Z"/>
                </g>
              </g>
            </g>
          </g>
        </g>
        <g id="_Group_33">
          <circle id="_Path_75" class="cls-66" cx="1" cy="1" r="1" transform="translate(41.098 4.812)"/>
          <circle id="_Path_76" class="cls-66" cx="1" cy="1" r="1" transform="translate(28.423 10.619)"/>
          <circle id="_Path_77" class="cls-66" cx="1" cy="1" r="1" transform="translate(56.758 11.746)"/>
          <circle id="_Path_78" class="cls-66" cx="1" cy="1" r="1" transform="translate(28.37 42.894)"/>
          <circle id="_Path_79" class="cls-66" cx="1" cy="1" r="1" transform="translate(78.539 41.283)"/>
          <circle id="_Path_80" class="cls-66" cx="1" cy="1" r="1" transform="translate(137.199 47.415)"/>
          <circle id="_Path_81" class="cls-66" cx="1" cy="1" r="1" transform="translate(14.661 72.588)"/>
          <circle id="_Path_82" class="cls-66" cx="1" cy="1" r="1" transform="translate(42.074 58.871)"/>
          <circle id="_Path_83" class="cls-66" cx="1" cy="1" r="1" transform="translate(25.103 59.034)"/>
          <circle id="_Path_84" class="cls-66" cx="1" cy="1" r="1" transform="translate(77.319 3.516)"/>
          <circle id="_Path_85" class="cls-66" cx="1" cy="1" r="1" transform="translate(69.486 95.826)"/>
          <circle id="_Path_86" class="cls-66" cx="1" cy="1" r="1" transform="translate(62.306 69.362)"/>
          <circle id="_Path_87" class="cls-66" cx="1" cy="1" r="1" transform="translate(16.623 93.89)"/>
          <circle id="_Path_88" class="cls-66" cx="1" cy="1" r="1" transform="translate(27.065 80.336)"/>
          <circle id="_Path_89" class="cls-66" cx="1" cy="1" r="1" transform="translate(74.869 61.615)"/>
          <circle id="_Path_90" class="cls-66" cx="1" cy="1" r="1" transform="translate(40.44 115.192)"/>
          <circle id="_Path_91" class="cls-66" cx="1" cy="1" r="1" transform="translate(119.412 130.041)"/>
          <circle id="_Path_92" class="cls-66" cx="1" cy="1" r="1" transform="translate(155.145 132.947)"/>
          <circle id="_Path_93" class="cls-66" cx="1" cy="1" r="1" transform="translate(97.546 83.242)"/>
          <circle id="_Path_94" class="cls-66" cx="1" cy="1" r="1" transform="translate(121.369 73.233)"/>
          <circle id="_Path_95" class="cls-66" cx="1" cy="1" r="1" transform="translate(95.754 -0.355)"/>
          <circle id="_Path_96" class="cls-66" cx="1" cy="1" r="1" transform="translate(115.657 0.936)"/>
          <circle id="_Path_97" class="cls-66" cx="1" cy="1" r="1" transform="translate(133.768 16.588)"/>
          <circle id="_Path_98" class="cls-66" cx="1" cy="1" r="1" transform="translate(116.558 39.831)"/>
          <circle id="_Path_99" class="cls-66" cx="1" cy="1" r="1" transform="translate(144.539 32.728)"/>
          <circle id="_Path_100" class="cls-66" cx="1" cy="1" r="1" transform="translate(147.148 9.973)"/>
          <circle id="_Path_101" class="cls-66" cx="1" cy="1" r="1" transform="translate(158.794 31.092)"/>
          <circle id="_Path_102" class="cls-66" cx="1" cy="1" r="1" transform="translate(156.938 100.347)"/>
          <circle id="_Path_103" class="cls-66" cx="1" cy="1" r="1" transform="translate(143.886 69.362)"/>
          <circle id="_Path_104" class="cls-66" cx="1" cy="1" r="1" transform="translate(102.118 62.905)"/>
          <circle id="_Path_105" class="cls-66" cx="1" cy="1" r="1" transform="translate(161.509 111.966)"/>
          <circle id="_Path_106" class="cls-66" cx="1" cy="1" r="1" transform="translate(92.98 117.778)"/>
          <circle id="_Path_107" class="cls-66" cx="1" cy="1" r="1" transform="translate(93.632 97.766)"/>
          <circle id="_Path_108" class="cls-66" cx="1" cy="1" r="1" transform="translate(71.443 139.079)"/>
          <circle id="_Path_109" class="cls-66" cx="1" cy="1" r="1" transform="translate(94.937 145.531)"/>
          <circle id="_Path_110" class="cls-66" cx="1" cy="1" r="1" transform="translate(175.462 80.215)"/>
          <circle id="_Path_111" class="cls-66" cx="1" cy="1" r="1" transform="translate(156.614 77.43)"/>
          <circle id="_Path_112" class="cls-66" cx="1" cy="1" r="1" transform="translate(158.142 59.517)"/>
          <circle id="_Path_113" class="cls-66" cx="1" cy="1" r="1" transform="translate(129.117 114.872)"/>
          <circle id="_Path_114" class="cls-66" cx="1" cy="1" r="1" transform="translate(136.462 100.184)"/>
          <circle id="_Path_115" class="cls-66" cx="1" cy="1" r="1" transform="translate(147.556 107.124)"/>
          <circle id="_Path_116" class="cls-66" cx="1" cy="1" r="1" transform="translate(184.844 88.283)"/>
          <circle id="_Path_117" class="cls-66" cx="1" cy="1" r="1" transform="translate(192.513 75.856)"/>
          <circle id="_Path_118" class="cls-66" cx="1" cy="1" r="1" transform="translate(195.716 53.406)"/>
          <circle id="_Path_119" class="cls-66" cx="1" cy="1" r="1" transform="translate(175.462 95.06)"/>
          <circle id="_Path_120" class="cls-66" cx="1" cy="1" r="1" transform="translate(174.81 58.226)"/>
          <circle id="_Path_121" class="cls-66" cx="1" cy="1" r="1" transform="translate(188.005 31.092)"/>
          <circle id="_Path_122" class="cls-66" cx="1" cy="1" r="1" transform="translate(174.81 22.568)"/>
          <circle id="_Path_123" class="cls-66" cx="1" cy="1" r="1" transform="translate(166.176 65.003)"/>
          <circle id="_Path_124" class="cls-66" cx="1" cy="1" r="1" transform="translate(14.868 46.775)"/>
          <circle id="_Path_125" class="cls-66" cx="1" cy="1" r="1" transform="translate(22.536 34.349)"/>
          <circle id="_Path_126" class="cls-66" cx="1" cy="1" r="1" transform="translate(14.544 23.858)"/>
          <circle id="_Path_127" class="cls-66" cx="1" cy="1" r="1" transform="translate(5.486 53.553)"/>
          <circle id="_Path_128" class="cls-66" cx="1" cy="1" r="1" transform="translate(22.536 100.992)"/>
          <circle id="_Path_129" class="cls-66" cx="1" cy="1" r="1" transform="translate(8.832 130.687)"/>
          <circle id="_Path_130" class="cls-66" cx="1" cy="1" r="1" transform="translate(19.275 117.127)"/>
          <circle id="_Path_131" class="cls-66" cx="1" cy="1" r="1" transform="translate(21.232 138.434)"/>
          <circle id="_Path_132" class="cls-66" cx="1" cy="1" r="1" transform="translate(39.788 90.035)"/>
          <circle id="_Path_133" class="cls-66" cx="1" cy="1" r="1" transform="translate(9.039 104.874)"/>
          <circle id="_Path_134" class="cls-66" cx="1" cy="1" r="1" transform="translate(-0.348 111.651)"/>
          <circle id="_Path_135" class="cls-66" cx="1" cy="1" r="1" transform="translate(143.637 124.229)"/>
          <circle id="_Path_136" class="cls-66" cx="1" cy="1" r="1" transform="translate(180.713 122.457)"/>
          <circle id="_Path_137" class="cls-66" cx="1" cy="1" r="1" transform="translate(194.581 100.992)"/>
          <circle id="_Path_138" class="cls-66" cx="1" cy="1" r="1" transform="translate(199.147 114.709)"/>
          <circle id="_Path_139" class="cls-66" cx="1" cy="1" r="1" transform="translate(195.233 131.814)"/>
          <circle id="_Path_140" class="cls-66" cx="1" cy="1" r="1" transform="translate(36.017 122.294)"/>
          <circle id="_Path_141" class="cls-66" cx="1" cy="1" r="1" transform="translate(43.362 107.607)"/>
          <circle id="_Path_142" class="cls-66" cx="1" cy="1" r="1" transform="translate(54.457 114.546)"/>
          <circle id="_Path_143" class="cls-66" cx="1" cy="1" r="1" transform="translate(50.538 131.652)"/>
          <circle id="_Path_144" class="cls-66" cx="1" cy="1" r="1" transform="translate(97.795 36.762)"/>
          <circle id="_Path_145" class="cls-66" cx="1" cy="1" r="1" transform="translate(50.23 30.147)"/>
        </g>
      </g>
    </g>
  </g>
</svg>
